<?xml version="1.0" encoding="UTF-8"?>
<svg width="110px" height="112px" viewBox="0 0 110 112" version="1.1" xmlns="http://www.w3.org/2000/svg" xmlns:xlink="http://www.w3.org/1999/xlink">
    <!-- Generator: Sketch 44 (41411) - http://www.bohemiancoding.com/sketch -->
    <title>logo-corunet</title>
    <desc>Created with Sketch.</desc>
    <defs>
        <linearGradient x1="16.8%" y1="27.5902701%" x2="27.8%" y2="37.6469333%" id="linearGradient-1">
            <stop stop-color="#D9D9D9" offset="0%"></stop>
            <stop stop-color="#FFFFFF" offset="100%"></stop>
        </linearGradient>
    </defs>
    <g id="Page-1" stroke="none" stroke-width="1" fill="none" fill-rule="evenodd">
        <g id="logo-corunet" fill-rule="nonzero">
            <g id="corunet">
                <g id="layer4" opacity="0.7" transform="translate(6.709299, 6.625690)" fill="#FFFFFF">
                    <g id="layer1-7">
                        <path d="M31.5431423,94.2812102 C30.9790559,94.1965172 30.4110486,94.1403946 29.8412951,94.1130573 C22.690828,93.6020594 15.9847983,90.7805945 11.1877707,86.2647558 C4.20919321,79.6955839 0.480636943,70.0664968 0.0387685775,57.4730149 C-0.334904459,46.7999788 2.03605096,35.7883015 6.7181741,26.4623567 C12.992845,13.9641614 22.8519745,5.20970276 34.1885138,2.06734607 C36.8742887,1.32303609 39.49,0.743842887 39.8323779,0.817876858 C40.1821553,0.796930995 40.5297364,0.748436749 40.8718896,0.672845011 C43.9455839,0.0889808917 52.7549257,0.0866454352 57.6953503,0.666772824 C60.4663694,0.992101911 65.5385138,1.73664544 65.7113376,1.84360934 C66.0173515,1.93686531 66.3312024,2.00213692 66.6490234,2.03861996 C67.0990658,2.10518047 68.494034,2.40248408 69.750276,2.69955414 C85.8616561,6.5089172 96.8728662,14.460913 100.151614,24.6542463 C101.088599,27.5677282 101.259554,28.9332696 101.229427,33.2720807 C101.204437,36.8920382 101.144416,37.6160297 100.624777,40.5780892 C100.307389,42.3861996 99.9773885,44.3178556 99.8912102,44.8704246 C99.8050318,45.4229936 99.4876433,47.0657537 99.1859023,48.5233121 C98.8841614,49.9808705 98.5055839,51.8291507 98.345138,52.6337155 C96.7878556,60.4147558 96.1409342,63.0099151 94.8171975,66.7889172 C92.6594692,72.9489172 89.7618684,77.3127176 85.8985563,80.2203609 C83.7055626,81.870828 79.6115074,83.6397028 76.416603,84.3169851 C76.0146709,84.4022293 74.9050955,84.6532909 73.950828,84.8751592 C72.9965605,85.0970276 72.0511677,85.3025478 71.8503185,85.3319745 C71.6494692,85.3614013 70.5398938,85.6054565 69.3845435,85.8745011 C68.2291932,86.1435456 66.7499151,86.4796178 66.0969214,86.6218471 C65.4439278,86.7640764 64.3343524,87.0508705 63.6311465,87.2605945 C62.9279406,87.4703185 61.8183652,87.7893418 61.1653715,87.969172 C60.5123779,88.1490021 58.4576433,88.7921868 56.599087,89.3982378 C47.0108705,92.5251805 43.7101699,93.3451592 37.6949682,94.0925053 C36.732293,94.2120807 31.6423992,94.3694904 31.5429087,94.282845 L31.5431423,94.2812102 Z" id="path4046"></path>
                    </g>
                </g>
                <g id="layer5" transform="translate(0.233546, 5.564926)" fill="#FFFFFF" opacity="0.8">
                    <g id="layer2">
                        <path d="M58.3427389,97.3876008 C55.8505732,97.145414 53.9686624,96.5762633 51.1890021,95.2247346 C50.1315074,94.7109342 49.0186624,94.1434183 48.7159873,93.9635881 C48.0702335,93.5822081 45.1245223,91.7463057 44.5196391,91.3478769 C44.2898301,91.1965393 43.5826539,90.7427601 42.9481104,90.3394268 C42.3135669,89.9360934 41.5365605,89.4367728 41.2212739,89.2300849 C40.0397665,88.455414 35.9562208,86.0127601 35.6493418,85.897155 C35.473949,85.8310616 34.8765393,85.5157749 34.3218684,85.196518 C33.7671975,84.8772611 31.1690021,83.5180255 28.5458174,82.1756051 C22.849172,79.259087 21.053673,78.2445648 17.9367728,76.1809554 C8.38895966,69.8598089 2.67713376,62.2319745 0.734501062,53.2082378 C-0.0639915074,49.4992994 0.103927813,44.0999575 1.14530786,40.0754989 C3.28528662,31.7967728 8.77921444,23.4484501 16.7928662,16.2982166 C24.9709342,9.00131635 34.3494268,4.02048832 44.49862,1.58484076 C51.1394904,-0.00910828025 58.8212739,-0.206687898 65.1111253,1.05492569 C76.2435456,3.28785563 86.2236518,10.6118471 96.2039915,23.8707006 C104.464735,34.8457113 108.98758,45.3685775 109.483631,54.7676221 C109.950722,63.6098938 107.098662,70.333673 100.429066,76.1162633 C98.8227389,77.508896 96.4120807,79.3672187 94.4654777,80.7138429 C93.6384926,81.2857962 93.1281953,81.6445223 91.0729936,83.0983439 C90.5321019,83.4811253 81.3476858,89.5315924 80.5034183,90.0615074 C73.3980255,94.5222293 67.5813376,96.8873461 62.5598726,97.3605096 C60.4701062,97.5573885 60.1172187,97.5594904 58.3425053,97.3871338 L58.3427389,97.3876008 Z" id="path4060"></path>
                    </g>
                </g>
                <g id="layer6" transform="translate(9.143546, 0.233546)" fill="#FFFFFF">
                    <g id="layer3-7">
                        <path d="M45.2036943,108.979406 C44.9026539,108.938068 43.9170913,108.815924 43.0137367,108.706391 C42.278126,108.626274 41.5471604,108.508097 40.8237792,108.352335 C40.5227389,108.266391 39.9066454,108.100106 39.4549682,107.982399 C36.9835881,107.339448 35.1488535,106.643949 32.3376645,105.284246 C22.7214225,100.633652 13.2137792,91.0438004 7.09138004,79.8179618 C6.22282378,78.2256476 5.51214437,76.8857962 5.51214437,76.8407219 C5.37168676,76.4597612 5.21220825,76.0860857 5.03430998,75.721104 C3.88666667,73.2289384 2.15259023,68.2476433 1.52808917,65.6499151 C0.393057325,60.9278556 -0.0112101911,57.58862 0.00116772824,53.0351805 C0.0168152866,47.3259236 0.886539278,42.620913 2.83104034,37.7283652 C5.89726115,30.0131847 10.9276008,23.7562633 20.5735032,15.6599363 C23.2359236,13.4244374 29.2532272,9.28250531 32.7951805,7.24645435 C34.6049257,6.20600849 39.8314437,3.60197452 40.1098301,3.60197452 C40.346756,3.5386872 40.5770121,3.452654 40.7973885,3.34507431 C43.0324758,2.44191486 45.328573,1.69777678 47.668535,1.11821656 C48.0188535,1.04208068 48.3894904,0.958704883 48.4896815,0.932781316 C50.523397,0.406836518 52.2913376,0.241719745 55.972017,0.233779193 C59.771104,0.225605096 60.1057749,0.253163482 62.1768577,0.746178344 C63.3812527,1.03273885 64.4448195,1.34078556 64.5401062,1.43046709 C64.6706792,1.53262603 64.8307141,1.58995687 64.9964544,1.59394904 C65.4310828,1.59581741 68.9788747,3.44339703 70.1947134,4.30097665 C73.6313376,6.72541401 77.2321444,10.7314225 80.883397,16.1924204 C81.3196603,16.8449469 81.7241614,17.4197028 81.7825478,17.4699151 C81.9413588,17.6065393 86.7225053,24.7651805 86.7225053,24.8665393 C86.9609108,25.2916357 87.2254821,25.7015185 87.5146921,26.0938217 C91.8457962,32.3250531 94.8281741,38.2993843 96.1007643,43.2930573 C96.736242,45.7868577 96.8322293,46.5823142 96.8165817,49.2251168 C96.7901911,53.695414 95.7303609,56.7686412 92.2523992,62.4559448 C92.1295541,62.6565605 91.9705096,62.9440552 91.8985775,63.0946921 C91.8388566,63.2274331 91.759583,63.3504764 91.663397,63.459724 C91.3027628,63.8802353 90.9920971,64.3411396 90.7376221,64.8332059 C90.6170745,65.0884419 90.4636569,65.3268124 90.2812739,65.5422505 C90.0816923,65.7742981 89.9266667,66.0411986 89.8239915,66.3295329 C89.7812887,66.4997106 89.6808272,66.6497837 89.5397665,66.7541189 C89.312097,66.9864262 89.1264058,67.2564291 88.9909342,67.5521444 C88.7939454,67.9485239 88.5687744,68.330261 88.317155,68.6944161 C87.4202304,69.9999085 86.5962662,71.354054 85.8490446,72.7506369 C85.5019958,73.4125053 84.8121019,74.6806582 84.3158174,75.5685987 C83.8195329,76.4565393 83.0637792,77.8937792 82.6363907,78.7623355 C80.2927601,83.5240977 77.688259,88.2223355 75.7921019,91.1087261 C69.3280255,100.948783 61.4784006,106.760878 52.2432272,108.545011 C50.4253079,108.896964 46.4094904,109.145223 45.2046285,108.980106 L45.2036943,108.979406 Z" id="path4592-3"></path>
                    </g>
                </g>
                <g id="layer7" transform="translate(9.143312, 0.233779)" fill="url(#linearGradient-1)">
                    <g id="layer3-7-0">
                        <path d="M45.2036943,108.979406 C44.9026539,108.938068 43.9170913,108.815924 43.0137367,108.706391 C42.278126,108.626274 41.5471604,108.508097 40.8237792,108.352335 C40.5227389,108.266391 39.9066454,108.100106 39.4549682,107.982399 C36.9835881,107.339448 35.1488535,106.643949 32.3376645,105.284246 C22.7214225,100.633652 13.2137792,91.0438004 7.09138004,79.8179618 C6.22282378,78.2256476 5.51214437,76.8857962 5.51214437,76.8407219 C5.37168676,76.4597612 5.21220825,76.0860857 5.03430998,75.721104 C3.88666667,73.2289384 2.15259023,68.2476433 1.52808917,65.6499151 C0.393057325,60.9278556 -0.0112101911,57.58862 0.00116772824,53.0351805 C0.0168152866,47.3259236 0.886539278,42.620913 2.83104034,37.7283652 C5.89726115,30.0131847 10.9276008,23.7562633 20.5735032,15.6599363 C23.2359236,13.4244374 29.2532272,9.28250531 32.7951805,7.24645435 C34.6049257,6.20600849 39.8314437,3.60197452 40.1098301,3.60197452 C40.346756,3.5386872 40.5770121,3.452654 40.7973885,3.34507431 C43.0324758,2.44191486 45.328573,1.69777678 47.668535,1.11821656 C48.0188535,1.04208068 48.3894904,0.958704883 48.4896815,0.932781316 C50.523397,0.406836518 52.2913376,0.241719745 55.972017,0.233779193 C59.771104,0.225605096 60.1057749,0.253163482 62.1768577,0.746178344 C63.3812527,1.03273885 64.4448195,1.34078556 64.5401062,1.43046709 C64.6706792,1.53262603 64.8307141,1.58995687 64.9964544,1.59394904 C65.4310828,1.59581741 68.9788747,3.44339703 70.1947134,4.30097665 C73.6313376,6.72541401 77.2321444,10.7314225 80.883397,16.1924204 C81.3196603,16.8449469 81.7241614,17.4197028 81.7825478,17.4699151 C81.9413588,17.6065393 86.7225053,24.7651805 86.7225053,24.8665393 C86.9609108,25.2916357 87.2254821,25.7015185 87.5146921,26.0938217 C91.8457962,32.3250531 94.8281741,38.2993843 96.1007643,43.2930573 C96.736242,45.7868577 96.8322293,46.5823142 96.8165817,49.2251168 C96.7901911,53.695414 95.7303609,56.7686412 92.2523992,62.4559448 C92.1295541,62.6565605 91.9705096,62.9440552 91.8985775,63.0946921 C91.8388566,63.2274331 91.759583,63.3504764 91.663397,63.459724 C91.3027628,63.8802353 90.9920971,64.3411396 90.7376221,64.8332059 C90.6170745,65.0884419 90.4636569,65.3268124 90.2812739,65.5422505 C90.0816923,65.7742981 89.9266667,66.0411986 89.8239915,66.3295329 C89.7812887,66.4997106 89.6808272,66.6497837 89.5397665,66.7541189 C89.312097,66.9864262 89.1264058,67.2564291 88.9909342,67.5521444 C88.7939454,67.9485239 88.5687744,68.330261 88.317155,68.6944161 C87.4202304,69.9999085 86.5962662,71.354054 85.8490446,72.7506369 C85.5019958,73.4125053 84.8121019,74.6806582 84.3158174,75.5685987 C83.8195329,76.4565393 83.0637792,77.8937792 82.6363907,78.7623355 C80.2927601,83.5240977 77.688259,88.2223355 75.7921019,91.1087261 C69.3280255,100.948783 61.4784006,106.760878 52.2432272,108.545011 C50.4253079,108.896964 46.4094904,109.145223 45.2046285,108.980106 L45.2036943,108.979406 Z" id="path4592-3-5"></path>
                    </g>
                </g>
                <g id="layer1" transform="translate(18.100722, 9.690743)" fill="#FFFFFF">
                    <g id="layer3">
                        <path d="M42.0767516,101.223121 C41.7964968,101.184586 40.8791295,101.070382 40.0383652,100.969023 C39.3536695,100.894444 38.673296,100.784453 37.9999788,100.63949 C37.719724,100.559618 37.1463694,100.404544 36.7259873,100.295244 C34.4255626,99.6966667 32.7178769,99.0492781 30.1009979,97.7836943 C21.1498938,93.4549257 12.3001486,84.5283439 6.60023355,74.078811 C5.79146497,72.5978981 5.12983015,71.3498301 5.12983015,71.3077919 C4.99942891,70.9532331 4.85133071,70.6054362 4.68609342,70.2657113 C3.367314,67.2261082 2.27644909,64.0926233 1.42252654,60.891189 C0.36596603,56.4956263 -0.0102760085,53.3876008 0.00140127389,49.1492144 C0.015881104,43.8348832 0.825583864,39.4552017 2.63532909,34.9012951 C5.4892569,27.7197665 10.1718471,21.8956051 19.150276,14.3595541 C21.6293631,12.278896 27.2295541,8.42329087 30.5262845,6.52806794 C32.2108493,5.55955414 37.0756051,3.13558386 37.3348408,3.13558386 C37.5553263,3.07689135 37.7696266,2.99703712 37.9747558,2.89713376 C40.0552478,2.05647936 42.1925281,1.36384947 44.3706369,0.824416136 C44.6976008,0.754352442 45.0416136,0.675881104 45.1350318,0.651825902 C47.0281529,0.161380042 48.6737155,0.00864118896 52.0995966,0.00116772824 C55.6359448,-0.00653927813 55.946327,0.0191507431 57.8751805,0.478067941 C58.9961996,0.74477707 59.9861996,1.03157113 60.0749469,1.11518047 C60.1963195,1.21054537 60.3452277,1.26419488 60.4995329,1.26815287 C60.9042675,1.26978769 64.206603,2.98961783 65.3381316,3.78787686 C68.537707,6.04462845 71.88862,9.77341826 75.2871762,14.8565393 C75.6933121,15.463758 76.0697877,15.998811 76.1242038,16.0455202 C76.2720382,16.1728025 80.7222505,22.8360934 80.7222505,22.9304459 C80.944143,23.3260943 81.1903845,23.7075853 81.4595541,24.0727176 C85.4910191,29.8728238 88.2671762,35.4337792 89.4517197,40.0822718 C90.0432909,42.403482 90.1325053,43.1438217 90.1180255,45.6030573 C90.0935032,49.7641401 89.1070064,52.623673 85.8695966,57.91862 C85.7553928,58.1054565 85.6070913,58.3730998 85.5402972,58.5132272 C85.4846608,58.6368044 85.4108188,58.7513461 85.3212314,58.8530361 C84.9855295,59.2444426 84.6963377,59.6734496 84.459448,60.131465 C84.3473007,60.3690359 84.2045613,60.5909179 84.034862,60.791465 C83.8495327,61.0073476 83.7055978,61.2555522 83.610276,61.5236306 C83.570516,61.6820273 83.4769867,61.8217022 83.3456688,61.9187898 C83.1337226,62.1349786 82.9608333,62.3862527 82.8346709,62.661465 C82.6513401,63.0303717 82.4417788,63.3856503 82.2076008,63.7245648 C81.3727165,64.9397029 80.6057467,66.2001313 79.9102123,67.5000637 C79.5872187,68.1161571 78.9449682,69.2964968 78.4830149,70.1230149 C78.0210616,70.9495329 77.3176221,72.2872824 76.9196603,73.0958174 C74.7381104,77.5282803 72.313673,81.9004883 70.5487686,84.5881316 C64.5318542,93.7476362 57.2252229,99.1576433 48.6288747,100.818153 C46.936603,101.145117 43.1987049,101.376794 42.0769851,101.223121 L42.0767516,101.223121 Z" id="path4592"></path>
                    </g>
                </g>
                <g id="layer9" transform="translate(21.718110, 34.690403)" fill="#4E1664">
                    <g id="layer1-8">
                        <path d="M12.4458811,0.233545648 C10.7642813,0.234971611 9.0961162,0.533027646 7.51806794,1.11401274 C6.01375955,1.6863452 4.64768564,2.57071548 3.50972399,3.70893843 C2.38648185,4.82731281 1.49915391,6.15977394 0.900318471,7.6273673 C0.285168801,9.16068178 -0.0200370623,10.800697 0.00233545648,12.4526539 C-0.036036835,14.6348858 0.509509282,16.7877207 1.58250531,18.6883227 C2.67335167,20.6011156 4.29040235,22.1605332 6.24150743,23.1812739 C7.13282684,23.6721613 8.08863212,24.0355214 9.08095541,24.2607219 C10.1496057,24.5295982 11.2487434,24.6580403 12.3505945,24.6428025 C13.2683916,24.6388894 14.1835954,24.5450223 15.0830786,24.3625478 C16.016823,24.1719069 16.930523,23.8936917 17.8120594,23.5315924 L17.8120594,23.5112739 L18.0103397,17.4234395 C18.6025111,18.8065525 19.4648811,20.0575091 20.546879,21.1029512 C21.5749509,22.1127734 22.7718806,22.9348079 24.0834607,23.5318259 C24.7498238,23.8198865 25.4368093,24.0576772 26.1386624,24.2432059 L26.1503397,46.5358386 L34.1943524,46.5358386 L34.2029936,35.033949 L41.0255626,46.5416773 L64.8955626,46.5358386 L64.8955626,40.2441189 L57.4055202,40.2354777 L57.4055202,37.8470064 L64.0267728,37.8353291 L64.0267728,31.8939278 L57.4055202,31.8822505 L57.4055202,29.6983652 L67.7121231,29.6983652 L67.7121231,46.5241614 L67.7354777,46.5241614 L67.7354777,46.5475159 L76.0497028,46.5358386 L76.06138,29.6971975 L80.6767091,29.6855202 L80.6767091,23.3977707 L76.851465,23.3860934 C78.3270019,22.6528751 79.5771251,21.53476 80.4697877,20.1498514 C80.9935647,19.3332789 81.3484522,18.420053 81.5135032,17.4640764 C81.7549894,16.1204883 81.8371975,13.3880042 81.8371975,13.3880042 L81.8255202,0.798492569 L73.4811677,0.810169851 L73.5014862,13.962293 C73.5421231,14.4739915 73.3541189,15.5186412 72.9241614,16.4493206 C72.730927,16.7354605 72.464888,16.9648989 72.1534607,17.1139915 C71.7601,17.2813954 71.3313213,17.3484848 70.9056263,17.3092357 C70.2902593,17.3053371 69.7181859,16.9919564 69.3836093,16.4754777 C69.3836093,16.4754777 69.3808068,16.4754777 69.3808068,16.4754777 L69.3808068,16.4726752 C68.9570782,15.5253673 68.7786161,14.4866408 68.8618684,13.4522293 L68.8501911,0.798492569 L60.494862,0.798492569 L60.4831847,5.18050955 C60.0879754,4.25976433 59.480567,3.44556498 58.7105732,2.80441614 L58.7105732,2.80161359 C56.6908024,1.33273166 54.2193638,0.619733998 51.7275584,0.787048832 L51.7247558,0.787048832 L41.2287473,0.798726115 L41.2170701,8.32963907 C41.142569,8.10963907 41.0652654,7.89127389 40.9779193,7.67571125 C40.380611,6.21110568 39.4917996,4.88321234 38.3654777,3.77269639 C37.2125656,2.638703 35.8418794,1.75001719 34.3361146,1.16025478 C32.7803286,0.549289965 31.1209731,0.245303472 29.4496391,0.26507431 C27.7803122,0.278616529 26.1259733,0.581495828 24.5601274,1.16025478 L24.5776433,1.20112527 L24.5748408,1.20392781 C24.5697028,1.18968153 24.5657325,1.17450106 24.5603609,1.16025478 C23.0573247,1.74701377 21.6908025,2.63619515 20.5454777,3.77269639 C19.4277282,5.02940552 18.4778981,6.3610828 17.9185563,7.67968153 L17.906879,1.42579618 L17.9040764,1.40828025 C16.1903562,0.628877776 14.32874,0.228116496 12.4461146,0.233312102 L12.4458811,0.233545648 Z M50.9405096,6.7555414 C50.9816136,6.7555414 51.022017,6.75414013 51.0628875,6.7555414 C51.6474118,6.77508806 52.2090936,6.98724795 52.6605732,7.35902335 C53.1097258,7.81398135 53.3449082,8.43805067 53.3077282,9.0762845 C53.3077282,9.0762845 53.3077282,9.0788535 53.3077282,9.07908705 C53.3432105,9.70323867 53.1072739,10.3122803 52.6605732,10.7496391 L52.6430573,10.7293206 L52.6575372,10.7496391 C52.1369556,11.1661985 51.4804273,11.3749729 50.814862,11.3356051 L49.5147134,11.3356051 L49.5147134,11.3122505 L49.4943949,11.3122505 L49.4943949,6.78146497 L49.5147134,6.78146497 L49.5147134,6.7581104 L50.8155626,6.7581104 C50.855966,6.75577495 50.8994055,6.75624204 50.9405096,6.7555414 Z M12.836603,7.81700637 C12.9122718,7.81700637 12.9884076,7.81700637 13.0640764,7.81980892 C13.929765,7.81856312 14.7855972,8.00350888 15.5735244,8.36210191 C16.2286741,8.66011861 16.8374747,9.05096228 17.3811677,9.52259023 L17.3666879,9.54010616 L17.3900425,9.5429087 C17.1812984,10.4986623 17.077689,11.474376 17.0810616,12.4526539 C17.0846907,13.4076494 17.1833438,14.3599137 17.3755626,15.2953715 L17.3552442,15.3012102 L17.3669214,15.3187261 C16.7390071,15.7614063 16.0667485,16.1375706 15.3609979,16.4411465 C14.5851085,16.7750431 13.7506058,16.9514381 12.905966,16.9600849 L12.9031635,16.9600849 C11.7127581,17.013231 10.5539462,16.5684909 9.70475584,15.732569 C8.88070911,14.8448567 8.44974162,13.6621802 8.50946921,12.4524204 C8.44843047,11.2069922 8.90072109,9.99100743 9.76080679,9.08819533 L9.76080679,9.08539278 C10.5815269,8.27766409 11.6853259,7.82251776 12.8368365,7.81700637 L12.836603,7.81700637 Z M29.2455202,8.00384289 C29.3120807,8.00384289 29.3800425,8.00874735 29.446603,8.01248408 L29.4494055,8.01248408 C30.5318638,7.97140009 31.5755117,8.41880025 32.2921231,9.23112527 C33.0360958,10.1354537 33.4193263,11.2829824 33.3680679,12.4528875 C33.4195053,13.6130804 33.0357873,14.7506579 32.2921231,15.6426539 L32.2921231,15.6454565 C31.5697532,16.4481859 30.5285832,16.8892205 29.4494055,16.8496178 L29.4461359,16.8496178 C28.3645877,16.8884962 27.3210656,16.447805 26.5947771,15.6454565 L26.5947771,15.6426539 C25.8470395,14.7526202 25.4609411,13.6141636 25.5129936,12.4528875 C25.4637559,11.2849827 25.849178,10.1402822 26.5947771,9.24 C27.2084033,8.51035681 28.0952652,8.06540551 29.0470064,8.00968153 C29.1135669,8.0059448 29.1787261,8.00360934 29.2452866,8.00384289 L29.2455202,8.00384289 Z M60.4859873,11.6541614 L60.5035032,11.6628025 L60.5296603,11.6628025 L60.5296603,13.3889384 C60.4583586,14.7632606 60.564167,16.1410456 60.8444798,17.4883652 C61.0514013,18.4069002 61.1681741,19.1231847 61.8561996,20.1241614 C62.7737119,21.5176986 64.0430251,22.6441687 65.5357113,23.3895966 L65.5270701,23.4099151 L65.5270701,23.4302335 L62.4248832,23.4302335 L62.4248832,23.4099151 L62.4073673,23.4215924 L56.6025902,14.5723142 L56.6229087,14.5606369 L56.6201062,14.5372824 C57.9177422,14.3987251 59.0984923,13.7243615 59.8771338,12.6770913 C60.1142253,12.3573749 60.3183711,12.0144976 60.4864544,11.6536943 L60.4859873,11.6541614 Z M49.4332059,16.3421231 L53.1743737,23.3977707 L53.1568577,23.409448 L53.1568577,23.4297665 L49.4126539,23.4297665 L49.4126539,23.409448 L49.3923355,23.409448 L49.3923355,16.3507643 L49.41569,16.3507643 L49.4332059,16.3421231 L49.4332059,16.3421231 Z M41.2170701,16.4091507 L41.2404246,16.4177919 L41.2607431,16.4177919 L41.2607431,35.0780892 L41.2401911,35.0780892 L41.2198726,35.0897665 L34.4323355,23.6630786 L34.4498514,23.6514013 L34.4440127,23.6310828 C35.8772767,23.0450582 37.1832529,22.1865688 38.2895754,21.1031847 C39.4252276,19.9911394 40.3230798,18.6599344 40.9286412,17.1903609 C41.0342038,16.9334607 41.1301911,16.6728238 41.2173036,16.4089172 L41.2170701,16.4091507 Z" id="path6455"></path>
                        <path d="M21.6018047,38.7475584 C19.6854634,38.7475057 18.0359313,40.1011118 17.6619465,41.9806062 C17.2879617,43.8601007 18.2936774,45.7420522 20.0640684,46.4755914 C21.8344593,47.2091306 23.8764793,46.5899698 24.9413722,44.9967445 C26.006265,43.4035191 25.7974627,41.2799355 24.4426539,39.9246285 C23.6863297,39.1754725 22.6663388,38.7528521 21.6018047,38.7475584 L21.6018047,38.7475584 Z" id="path6400"></path>
                    </g>
                </g>
            </g>
        </g>
    </g>
</svg>