<?xml version="1.0" encoding="UTF-8"?>
<svg width="195px" height="65px" viewBox="0 0 195 65" version="1.1" xmlns="http://www.w3.org/2000/svg" xmlns:xlink="http://www.w3.org/1999/xlink">
    <!-- Generator: Sketch 43.2 (39069) - http://www.bohemiancoding.com/sketch -->
    <title>logo-torresburriel</title>
    <desc>Created with Sketch.</desc>
    <defs></defs>
    <g id="Page-1" stroke="none" stroke-width="1" fill="none" fill-rule="evenodd">
        <g id="logo-torresburriel" fill="#FFFFFF">
            <g id="logo">
                <path d="M71.8189535,40.906789 C71.1510299,40.906789 70.6178571,41.1244635 70.2207309,41.5598123 C69.8236047,41.9951611 69.5897342,42.597005 69.5184718,43.3666395 L73.8687209,43.3666395 C73.8687209,42.5717392 73.6918605,41.9634169 73.3374917,41.5410249 C72.9831229,41.117985 72.4771595,40.906789 71.8189535,40.906789 M72.1603654,48.4761578 C70.9307641,48.4761578 69.960299,48.1010581 69.2489701,47.3521545 C68.538289,46.6032508 68.1826246,45.5634668 68.1826246,44.2321545 C68.1826246,42.8911246 68.5123754,41.8254269 69.1731728,41.0357093 C69.8339701,40.2459917 70.7208638,39.8514568 71.8338538,39.8514568 C72.8768771,39.8514568 73.7015781,40.1941645 74.3092525,40.8802276 C74.9162791,41.5662907 75.2201163,42.4706761 75.2201163,43.5940316 L75.2201163,44.3915233 L69.4880233,44.3915233 C69.513289,45.3684668 69.7601163,46.1095963 70.228505,46.6162076 C70.6968937,47.1221711 71.3557475,47.3748289 72.2063621,47.3748289 C73.1016777,47.3748289 73.9879236,47.187603 74.8631561,46.8131512 L74.8631561,47.9371545 C74.4180897,48.1289153 73.9963455,48.2669053 73.5992193,48.3504767 C73.202093,48.4340482 72.722691,48.4761578 72.1603654,48.4761578" id="Fill-1"></path>
                <path d="M81.9589535,46.0540764 C81.9589535,46.8282458 81.6706645,47.4255548 81.0934385,47.8460033 C80.5162126,48.265804 79.706412,48.4757043 78.6640365,48.4757043 C77.5607641,48.4757043 76.7004319,48.3014352 76.0830399,47.9522492 L76.0830399,46.782897 C76.4827575,46.9856711 76.9116279,47.1450399 77.3696512,47.2610033 C77.8276744,47.3776146 78.2695017,47.4359203 78.694485,47.4359203 C79.352691,47.4359203 79.8586545,47.3309701 80.2130233,47.1204219 C80.567392,46.9105216 80.7442525,46.5904884 80.7442525,46.1603223 C80.7442525,45.836402 80.6036711,45.5591262 80.3231561,45.3291429 C80.0419934,45.0985116 79.4939203,44.8264186 78.6789369,44.5128638 C77.9047674,44.2245748 77.3547508,43.9725648 77.0282392,43.7574817 C76.7017276,43.5423987 76.4587874,43.2981628 76.2994186,43.0247741 C76.1400498,42.7513854 76.0603654,42.4248738 76.0603654,42.0452392 C76.0603654,41.367598 76.3356977,40.8318339 76.8876578,40.4398904 C77.4389701,40.0479468 78.1956478,39.8516512 79.157691,39.8516512 C80.0536545,39.8516512 80.928887,40.0336944 81.7840365,40.3984286 L81.3363787,41.4233123 C80.5013123,41.0786611 79.7446346,40.9069834 79.0663455,40.9069834 C78.4690365,40.9069834 78.0187874,41.0002724 77.7149502,41.1874983 C77.411113,41.3747243 77.2595183,41.6332126 77.2595183,41.9623156 C77.2595183,42.1845249 77.3165282,42.3743422 77.4305482,42.5311196 C77.5445681,42.6885449 77.727907,42.8375482 77.9805648,42.9794252 C78.2338704,43.1213023 78.7197508,43.3260199 79.438206,43.5942259 C80.425515,43.9537774 81.0921429,44.3152724 81.4387375,44.6800066 C81.7853322,45.044093 81.9589535,45.5021163 81.9589535,46.0540764" id="Fill-2"></path>
                <path d="M85.9192027,47.4357907 C86.1420598,47.4357907 86.3571429,47.4195947 86.5644518,47.3865548 C86.7717608,47.353515 86.9363123,47.3191794 87.0581063,47.284196 L87.0581063,48.2481827 C86.921412,48.3136146 86.7199336,48.3680332 86.4543189,48.4114385 C86.1887043,48.454196 85.9496512,48.4755748 85.7371595,48.4755748 C84.1272757,48.4755748 83.3226578,47.6281993 83.3226578,45.9328007 L83.3226578,40.9826512 L82.1306312,40.9826512 L82.1306312,40.3756246 L83.3226578,39.8515216 L83.853887,38.0751429 L84.5827076,38.0751429 L84.5827076,40.0031163 L86.9972093,40.0031163 L86.9972093,40.9826512 L84.5827076,40.9826512 L84.5827076,45.8796777 C84.5827076,46.3804585 84.7019103,46.7652757 84.9396678,47.0334817 C85.1774252,47.3016877 85.5039369,47.4357907 85.9192027,47.4357907" id="Fill-3"></path>
                <path d="M89.127309,40.0033754 L89.127309,45.4011827 C89.127309,46.0794718 89.281495,46.5854352 89.590515,46.9197209 C89.898887,47.2533588 90.3828239,47.4205017 91.0403821,47.4205017 C91.9110797,47.4205017 92.5472591,47.1827442 92.9495681,46.7072292 C93.3518771,46.2310664 93.5533555,45.4543056 93.5533555,44.376299 L93.5533555,40.0033754 L94.8134053,40.0033754 L94.8134053,48.3242392 L93.7736213,48.3242392 L93.5915781,47.20801 L93.522907,47.20801 C93.2650664,47.618093 92.9068106,47.9316478 92.4487874,48.1493223 C91.9907641,48.3669967 91.4679568,48.4758339 90.8810133,48.4758339 C89.8690864,48.4758339 89.111113,48.235485 88.607093,47.7547874 C88.1037209,47.2740897 87.851711,46.5044551 87.851711,45.4465316 L87.851711,40.0033754 L89.127309,40.0033754 Z" id="Fill-4"></path>
                <path d="M99.8510133,47.4206312 C100.711346,47.4206312 101.335216,47.1867608 101.722625,46.7183721 C102.109385,46.2499834 102.30309,45.4946013 102.30309,44.4522259 L102.30309,44.1866113 C102.30309,43.0068937 102.106794,42.1659967 101.71485,41.6619767 C101.322259,41.1586047 100.696445,40.9065947 99.836113,40.9065947 C99.0969269,40.9065947 98.5313621,41.1942359 98.1387708,41.7682226 C97.7468272,42.3428571 97.5505316,43.1539535 97.5505316,44.2015116 C97.5505316,45.2646179 97.7455316,46.0666445 98.1355316,46.6082392 C98.5248837,47.1498339 99.0969269,47.4206312 99.8510133,47.4206312 L99.8510133,47.4206312 Z M102.371761,47.2081395 L102.30309,47.2081395 C101.721329,48.0535714 100.850631,48.4759635 99.6916445,48.4759635 C98.6032724,48.4759635 97.7571927,48.104103 97.1521096,47.3597342 C96.5470266,46.6160133 96.2451329,45.5580897 96.2451329,44.1866113 C96.2451329,42.8151329 96.5483223,41.7494352 97.1559967,40.9901661 C97.7630233,40.230897 98.6084551,39.8512625 99.6916445,39.8512625 C100.820183,39.8512625 101.685698,40.2613455 102.288189,41.0815116 L102.386661,41.0815116 L102.333538,40.4816113 L102.30309,39.8972591 L102.30309,36.5109967 L103.56314,36.5109967 L103.56314,48.3243688 L102.538256,48.3243688 L102.371761,47.2081395 Z" id="Fill-5"></path>
                <path d="M106.720066,48.3237857 L105.460017,48.3237857 L105.460017,40.0029219 L106.720066,40.0029219 L106.720066,48.3237857 Z M105.353123,37.7484369 C105.353123,37.4601478 105.424385,37.2489518 105.565615,37.1148488 C105.707492,36.9807458 105.884352,36.9133704 106.097492,36.9133704 C106.299618,36.9133704 106.474535,36.9820415 106.620947,37.1187359 C106.768007,37.2547824 106.841213,37.4653306 106.841213,37.7484369 C106.841213,38.032191 106.768007,38.243387 106.620947,38.3826728 C106.474535,38.5219585 106.299618,38.5912774 106.097492,38.5912774 C105.884352,38.5912774 105.707492,38.5219585 105.565615,38.3826728 C105.424385,38.243387 105.353123,38.032191 105.353123,37.7484369 L105.353123,37.7484369 Z" id="Fill-6"></path>
                <path d="M109.456545,44.156098 C109.456545,45.2192043 109.669037,46.029005 110.09402,46.5855 C110.519651,47.141995 111.144169,47.4205664 111.969518,47.4205664 C112.794219,47.4205664 113.420681,47.1432907 113.848256,46.589387 C114.275831,46.0348355 114.490266,45.2237392 114.490266,44.156098 C114.490266,43.0981744 114.275831,42.2948522 113.848256,41.7454834 C113.420681,41.1967625 112.789684,40.9220781 111.95397,40.9220781 C111.129269,40.9220781 110.506694,41.1928754 110.086894,41.7344701 C109.666445,42.2760648 109.456545,43.0832741 109.456545,44.156098 M115.795664,44.156098 C115.795664,45.5126761 115.454252,46.5718953 114.770781,47.333108 C114.087309,48.0949684 113.143405,48.4758987 111.93907,48.4758987 C111.195349,48.4758987 110.534551,48.3009817 109.957326,47.9517957 C109.380748,47.6026096 108.935033,47.1018289 108.621478,46.4488056 C108.307924,45.7957824 108.150498,45.0319784 108.150498,44.156098 C108.150498,42.7995199 108.489967,41.742892 109.168256,40.9862143 C109.846545,40.2295365 110.787857,39.8511977 111.992193,39.8511977 C113.156362,39.8511977 114.081478,40.2386063 114.766894,41.0127757 C115.452957,41.787593 115.795664,42.8351512 115.795664,44.156098" id="Fill-7"></path>
                <path d="M74.4951827,29.1305382 C75.1028571,29.1305382 75.8316777,28.9977309 76.6816445,28.7321163 L76.6816445,31.317 C75.8161296,31.7044086 74.7530233,31.8974651 73.4929734,31.8974651 C72.1040033,31.8974651 71.0927243,31.5463355 70.4591362,30.8447243 C69.8249003,30.1424651 69.5074585,29.0890764 69.5074585,27.6845581 L69.5074585,21.5462691 L67.8444518,21.5462691 L67.8444518,20.0769668 L69.7575249,18.9153887 L70.7597342,16.2281462 L72.9805316,16.2281462 L72.9805316,18.938711 L76.5449502,18.938711 L76.5449502,21.5462691 L72.9805316,21.5462691 L72.9805316,27.6845581 C72.9805316,28.1775648 73.1198173,28.542299 73.397093,28.7774651 C73.6737209,29.0126312 74.0397508,29.1305382 74.4951827,29.1305382" id="Fill-8"></path>
                <path d="M80.8569767,25.2814585 C80.8569767,26.5415083 81.06299,27.4944817 81.4769601,28.1397309 C81.8909302,28.7849801 82.5653322,29.1076047 83.4988704,29.1076047 C84.4252824,29.1076047 85.0906146,28.7869236 85.4968106,28.1455615 C85.9030066,27.5041993 86.1070764,26.5492824 86.1070764,25.2814585 C86.1070764,24.0214086 85.901711,23.0762093 85.4916279,22.4458605 C85.0815449,21.8155116 84.4097342,21.5006611 83.476196,21.5006611 C82.5497841,21.5006611 81.8818605,21.8135681 81.4717774,22.4400299 C81.0616944,23.0664917 80.8569767,24.0136346 80.8569767,25.2814585 M89.6598339,25.2814585 C89.6598339,27.3539003 89.1130565,28.9747973 88.0201495,30.1441495 C86.9265947,31.3135017 85.4048173,31.8978538 83.4535216,31.8978538 C82.2310465,31.8978538 81.1530399,31.6302957 80.2195017,31.0951794 C79.2853156,30.5594153 78.5681561,29.7910764 78.0667276,28.7888671 C77.5659468,27.7866578 77.3152326,26.6179535 77.3152326,25.2814585 C77.3152326,23.2012425 77.8581229,21.5842326 78.9439037,20.4304286 C80.0296844,19.2759767 81.5553488,18.6993987 83.5215449,18.6993987 C84.7440199,18.6993987 85.8220266,18.9650133 86.7555648,19.4962425 C87.6897508,20.0281196 88.4069103,20.7906279 88.9083389,21.785711 C89.4091196,22.7801462 89.6598339,23.9449635 89.6598339,25.2814585" id="Fill-9"></path>
                <path d="M98.4685216,18.6992691 C98.9395017,18.6992691 99.3301495,18.7336047 99.6417608,18.8016279 L99.3793854,22.0589701 C99.0988704,21.9825249 98.7568106,21.9449502 98.3545017,21.9449502 C97.2460465,21.9449502 96.3831229,22.2293522 95.7650831,22.798804 C95.1463953,23.3682558 94.8367276,24.1657475 94.8367276,25.1906312 L94.8367276,31.6696844 L91.3630066,31.6696844 L91.3630066,18.9383223 L93.993887,18.9383223 L94.5063289,21.0794352 L94.676711,21.0794352 C95.0718937,20.365515 95.6057143,19.7908804 96.2768771,19.3542359 C96.9486877,18.9175914 97.678804,18.6992691 98.4685216,18.6992691" id="Fill-10"></path>
                <path d="M107.893953,18.6992691 C108.364934,18.6992691 108.755581,18.7336047 109.067193,18.8016279 L108.804817,22.0589701 C108.524302,21.9825249 108.182243,21.9449502 107.779934,21.9449502 C106.671478,21.9449502 105.807259,22.2293522 105.188571,22.798804 C104.569884,23.3682558 104.261512,24.1657475 104.261512,25.1906312 L104.261512,31.6696844 L100.787791,31.6696844 L100.787791,18.9383223 L103.418671,18.9383223 L103.931113,21.0794352 L104.101495,21.0794352 C104.496678,20.365515 105.029203,19.7908804 105.701013,19.3542359 C106.372824,18.9175914 107.104236,18.6992691 107.893953,18.6992691" id="Fill-11"></path>
                <path d="M115.484053,21.1704568 C114.747458,21.1704568 114.17088,21.4036794 113.753023,21.8707724 C113.335814,22.3378654 113.096113,22.9999585 113.035864,23.8576993 L117.909568,23.8576993 C117.894668,22.9999585 117.670515,22.3378654 117.237757,21.8707724 C116.805,21.4036794 116.220648,21.1704568 115.484053,21.1704568 M115.973821,31.8980482 C113.924053,31.8980482 112.321944,31.3324834 111.16814,30.200706 C110.014336,29.0695764 109.43711,27.4681146 109.43711,25.3950249 C109.43711,23.2623339 109.97093,21.6129319 111.037924,20.4474668 C112.104269,19.2820017 113.578754,18.699593 115.461379,18.699593 C117.260432,18.699593 118.661063,19.2120349 119.663272,20.2369186 C120.665482,21.2618023 121.166262,22.6773339 121.166262,24.4841611 L121.166262,26.1698422 L112.956179,26.1698422 C112.993754,27.1565033 113.28593,27.9274336 113.832708,28.4813372 C114.379485,29.0358887 115.146528,29.3125166 116.133189,29.3125166 C116.900233,29.3125166 117.625166,29.2328322 118.30799,29.0734635 C118.991462,28.9140947 119.705382,28.6601412 120.449103,28.3103073 L120.449103,30.9981977 C119.842076,31.3020349 119.19294,31.5274834 118.501694,31.6758389 C117.811096,31.8235465 116.968256,31.8980482 115.973821,31.8980482" id="Fill-12"></path>
                <path d="M131.707924,27.8892757 C131.707924,29.1953223 131.253787,30.1897575 130.346163,30.8725814 C129.439186,31.5560532 128.082608,31.898113 126.275781,31.898113 C125.350017,31.898113 124.560299,31.8352724 123.907276,31.7095914 C123.254252,31.5845581 122.643339,31.4005714 122.073887,31.1576312 L122.073887,28.2876977 C122.719136,28.5915349 123.445365,28.8461362 124.25387,29.0508538 C125.062375,29.2555714 125.775,29.3585781 126.389801,29.3585781 C127.64985,29.3585781 128.280199,28.9938439 128.280199,28.2650233 C128.280199,27.9916346 128.196628,27.7694252 128.029485,27.5990432 C127.862342,27.4280133 127.574053,27.234309 127.16397,27.0179302 C126.754535,26.8015515 126.207757,26.5495415 125.524286,26.2606047 C124.544751,25.8511694 123.825,25.4715349 123.365681,25.1223488 C122.906362,24.772515 122.572076,24.3721495 122.363472,23.9206047 C122.154867,23.4690598 122.051213,22.9125648 122.051213,22.2524153 C122.051213,21.1212857 122.489153,20.2460532 123.365681,19.6273654 C124.242857,19.0086777 125.486063,18.69901 127.095947,18.69901 C128.629385,18.69901 130.121362,19.0332957 131.571229,19.7012193 L130.523671,22.2070664 C129.885548,21.9336777 129.290183,21.7095249 128.735631,21.534608 C128.181728,21.3603389 127.616163,21.2728804 127.038937,21.2728804 C126.014053,21.2728804 125.501611,21.5501561 125.501611,22.1040598 C125.501611,22.4156711 125.666163,22.6851728 125.996561,22.9125648 C126.326312,23.1406047 127.050598,23.4781296 128.166179,23.9264352 C129.160615,24.3287442 129.889435,24.7044917 130.352641,25.0536777 C130.815847,25.4028638 131.157259,25.8051728 131.377525,26.2606047 C131.597791,26.7160365 131.707924,27.2589269 131.707924,27.8892757" id="Fill-13"></path>
                <path d="M138.968272,20.5668638 C137.677774,20.5668638 136.747475,20.9367807 136.178023,21.6772625 C135.608571,22.4170963 135.324169,23.6641894 135.324169,25.4178937 C135.324169,27.171598 135.616346,28.4264651 136.201346,29.1818472 C136.785698,29.9372292 137.723123,30.3149203 139.013621,30.3149203 C140.175199,30.3149203 141.040714,29.8918804 141.610166,29.0451528 C142.179618,28.1984252 142.46402,26.9817807 142.46402,25.3952193 C142.46402,23.7704352 142.179618,22.5596213 141.610166,21.7627774 C141.040714,20.9652857 140.160299,20.5668638 138.968272,20.5668638 M139.241661,18.9841894 C140.881346,18.9841894 142.155648,19.5439236 143.062625,20.663392 C143.970249,21.7835083 144.42309,23.3681262 144.42309,25.4178937 C144.42309,27.4676611 143.966362,29.0600532 143.051611,30.1950698 C142.13686,31.3300864 140.866445,31.8975947 139.241661,31.8975947 C138.429269,31.8975947 137.687492,31.7479435 137.015681,31.4479934 C136.34387,31.1480432 135.779601,30.6867807 135.324169,30.064206 L135.187475,30.064206 L134.789053,31.6702027 L133.433771,31.6702027 L133.433771,13.9504684 L135.324169,13.9504684 L135.324169,18.2553688 C135.324169,19.2193555 135.293721,20.0848704 135.232824,20.8512658 L135.324169,20.8512658 C136.204585,19.6067641 137.510631,18.9841894 139.241661,18.9841894" id="Fill-14"></path>
                <path d="M148.336694,19.1889718 L148.336694,27.2856827 C148.336694,28.3027924 148.567973,29.0620615 149.031179,29.56349 C149.494385,30.0642708 150.219319,30.314985 151.206628,30.314985 C152.512027,30.314985 153.466296,29.9580249 154.070083,29.2441047 C154.673223,28.5308322 154.975764,27.3653671 154.975764,25.7483571 L154.975764,19.1889718 L156.866163,19.1889718 L156.866163,31.6702674 L155.306163,31.6702674 L155.032774,29.9962475 L154.930415,29.9962475 C154.543007,30.6110482 154.005299,31.0813804 153.31794,31.407892 C152.631229,31.7344037 151.84799,31.8976595 150.967575,31.8976595 C149.449037,31.8976595 148.311429,31.5374601 147.556047,30.8157658 C146.800664,30.0947193 146.423621,28.9409153 146.423621,27.3543538 L146.423621,19.1889718 L148.336694,19.1889718 Z" id="Fill-15"></path>
                <path d="M165.40211,18.961191 C165.956013,18.961191 166.453555,19.0065399 166.894086,19.0978854 L166.631711,20.8515897 C166.11603,20.7375698 165.65995,20.6805598 165.265415,20.6805598 C164.255432,20.6805598 163.392508,21.0906429 162.675349,21.910809 C161.958189,22.7303272 161.598638,23.7519718 161.598638,24.973799 L161.598638,31.6698787 L159.708239,31.6698787 L159.708239,19.1892309 L161.268239,19.1892309 L161.484618,21.5007259 L161.575963,21.5007259 C162.039169,20.6883339 162.59696,20.0618721 163.249983,19.6219884 C163.903007,19.1814568 164.620166,18.961191 165.40211,18.961191" id="Fill-16"></path>
                <path d="M173.756013,18.961191 C174.309917,18.961191 174.807458,19.0065399 175.24799,19.0978854 L174.985615,20.8515897 C174.469934,20.7375698 174.013854,20.6805598 173.619319,20.6805598 C172.609336,20.6805598 171.746412,21.0906429 171.029252,21.910809 C170.312093,22.7303272 169.952542,23.7519718 169.952542,24.973799 L169.952542,31.6698787 L168.062143,31.6698787 L168.062143,19.1892309 L169.622143,19.1892309 L169.838522,21.5007259 L169.929867,21.5007259 C170.393073,20.6883339 170.950864,20.0618721 171.603887,19.6219884 C172.25691,19.1814568 172.97407,18.961191 173.756013,18.961191" id="Fill-17"></path>
                <path d="M178.307093,31.6697492 L176.416694,31.6697492 L176.416694,19.1884535 L178.307093,19.1884535 L178.307093,31.6697492 Z M176.257326,15.8067259 C176.257326,15.3739684 176.363571,15.0571744 176.576711,14.855696 C176.789203,14.6548654 177.054817,14.5538023 177.373555,14.5538023 C177.677392,14.5538023 177.93912,14.656809 178.159385,14.8615266 C178.379651,15.0662442 178.489784,15.3817425 178.489784,15.8067259 C178.489784,16.2317093 178.379651,16.5491512 178.159385,16.7577558 C177.93912,16.9663605 177.677392,17.0706628 177.373555,17.0706628 C177.054817,17.0706628 176.789203,16.9663605 176.576711,16.7577558 C176.363571,16.5491512 176.257326,16.2317093 176.257326,15.8067259 L176.257326,15.8067259 Z" id="Fill-18"></path>
                <path d="M185.908854,20.5441246 C184.906645,20.5441246 184.108505,20.8706362 183.512492,21.5236595 C182.916478,22.1766827 182.564701,23.0797724 182.458455,24.2335764 L188.983505,24.2335764 C188.983505,23.0415498 188.71789,22.1287425 188.186661,21.4951545 C187.654784,20.8609186 186.895515,20.5441246 185.908854,20.5441246 M186.421296,31.8975299 C184.576246,31.8975299 183.121196,31.3358522 182.05485,30.2124967 C180.987857,29.0884934 180.454037,27.5284934 180.454037,25.5318488 C180.454037,23.520304 180.950282,21.9220814 181.940831,20.7378289 C182.931379,19.5535764 184.261395,18.9614502 185.931528,18.9614502 C187.495415,18.9614502 188.732791,19.4758355 189.644302,20.5039585 C190.555166,21.5327292 191.010598,22.8899551 191.010598,24.5756362 L191.010598,25.770902 L182.413106,25.770902 C182.450681,27.2363173 182.821246,28.3486595 183.523505,29.1079286 C184.225764,29.8671977 185.214369,30.2468322 186.489319,30.2468322 C187.833588,30.2468322 189.161661,29.9656694 190.475482,29.4039917 L190.475482,31.0890249 C189.807558,31.3779618 189.175914,31.5846229 188.5799,31.7096561 C187.983887,31.8353372 187.264136,31.8975299 186.421296,31.8975299" id="Fill-19"></path>
                <polygon id="Fill-20" points="193.068787 31.6697492 194.959186 31.6697492 194.959186 13.950015 193.068787 13.950015"></polygon>
                <path d="M46.7572425,52.6849834 L46.7572425,43.545897 L54.6751495,48.1151163 L46.7572425,52.6849834 Z M28.3961462,63.2843023 L28.3961462,54.1439203 L36.3140532,58.7137874 L28.3961462,63.2843023 Z M19.6263289,58.7144352 L27.5455316,54.1439203 L27.5455316,63.2843023 L19.6263289,58.7144352 Z M18.362392,48.8497674 L18.362392,57.9817276 L10.4516113,53.4157475 L18.362392,48.8497674 Z M9.18249169,52.6862791 L1.26328904,48.116412 L9.18249169,43.545897 L9.18249169,52.6862791 Z M9.1857309,11.7498837 L9.1857309,20.8339037 L9.18313953,20.8319601 L9.18313953,20.8870266 L1.26717608,16.319103 L9.1857309,11.7498837 Z M18.3669269,6.45119601 L18.3669269,15.5889867 L10.4490199,11.0204153 L18.3669269,6.45119601 Z M27.5442359,1.15315615 L27.5442359,10.2877076 L19.6302159,5.72107973 L27.5442359,1.15315615 Z M28.3909635,10.2877076 L28.3909635,1.15315615 L36.3043355,5.72107973 L28.3909635,10.2877076 Z M45.4900664,11.0184718 L37.5747508,15.5857475 L37.5747508,6.45054817 L45.4900664,11.0184718 Z M46.7494684,20.8889701 L46.7494684,11.7492359 L54.6686711,16.3184551 L46.7494684,20.8889701 Z M37.9971429,48.1157641 L45.9150498,43.545897 L45.9150498,52.6856312 L37.9971429,48.1157641 Z M37.57799,48.8471761 L45.4926578,53.4150997 L37.57799,57.9823754 L37.57799,48.8471761 Z M19.2110631,48.8497674 L27.1224917,53.4150997 L19.2110631,57.9797841 L19.2110631,48.8497674 Z M10.0298671,43.5478405 L17.9406478,48.1131728 L17.9380565,48.1144684 L17.9451827,48.1183555 L10.0298671,52.6862791 L10.0298671,43.5478405 Z M0.842840532,27.6485382 L8.76074751,32.2177575 L0.842840532,36.7863289 L0.842840532,27.6485382 Z M9.18313953,22.3485548 L9.18313953,31.4876412 L1.26523256,26.9197176 L9.18313953,22.3485548 Z M10.0292193,11.7498837 L17.9451827,16.319103 L10.0292193,20.8883223 L10.0292193,11.7498837 Z M45.9072757,20.8850831 L37.9971429,16.3184551 L45.9072757,11.7531229 L45.9072757,20.8850831 Z M55.0968937,36.7876246 L47.1783389,32.2177575 L55.0968937,27.6485382 L55.0968937,36.7876246 Z M36.7325581,48.8471761 L36.7325581,57.9823754 L28.8185382,53.4157475 L36.7325581,48.8471761 Z M9.18637874,32.9485216 L9.18702658,33.0022924 L9.18832226,33.0016445 L9.18832226,42.0863123 L1.27041528,37.5157973 L9.18637874,32.9485216 Z M36.7254319,15.5857475 L28.8107641,11.0184718 L36.7254319,6.45054817 L36.7254319,15.5857475 Z M46.7572425,32.9472259 L49.5040864,34.5318439 L54.6745017,37.5157973 L46.7572425,42.0869601 L46.7572425,32.9472259 Z M37.9977907,37.5164452 L45.9150498,32.9465781 L45.9150498,42.0869601 L37.9977907,37.5164452 Z M37.57799,38.2472093 L45.4939535,42.8164286 L37.57799,47.3837043 L37.57799,38.2472093 Z M18.3630399,38.248505 L18.3630399,47.3837043 L10.4509635,42.8164286 L18.3630399,38.248505 Z M27.5513621,20.8889701 L19.6328073,16.319103 L27.5513621,11.7492359 L27.5513621,20.8889701 Z M36.3075748,16.3203987 L28.3935548,20.8889701 L28.3935548,11.7531229 L36.3075748,16.3203987 Z M10.0318106,32.9478738 L17.9458306,37.5145017 L10.0318106,42.0830731 L10.0318106,32.9478738 Z M46.7572425,22.347907 L54.6751495,26.9190698 L46.7572425,31.488289 L46.7572425,22.347907 Z M19.2104153,6.45119601 L27.1276744,11.0204153 L19.2104153,15.5889867 L19.2104153,6.45119601 Z M47.1783389,21.6184385 L55.0962458,17.0479236 L55.0962458,26.1889535 L47.1783389,21.6184385 Z M0.845431894,26.1889535 L0.845431894,17.0485714 L8.76333887,21.6184385 L0.845431894,26.1889535 Z M8.76074751,42.8164286 L0.842840532,47.3856478 L0.842840532,38.2452658 L8.76074751,42.8164286 Z M55.0968937,38.2452658 L55.0968937,47.3856478 L47.177691,42.8164286 L55.0968937,38.2452658 Z M55.9384385,16.3184551 C55.9384385,16.1681561 55.8581063,16.0288704 55.7278904,15.9543688 C55.7240033,15.9517774 55.7194684,15.9530731 55.7155814,15.9511296 L28.1875415,0.0628405316 C28.1849502,0.0615448505 28.1836545,0.0583056478 28.1810631,0.0563621262 C28.1149834,0.0174916944 28.0411296,-0.000647840532 27.9679236,9.92953007e-16 C27.8940698,-0.000647840532 27.8202159,0.0174916944 27.7541362,0.0563621262 C27.7515449,0.0583056478 27.7502492,0.0615448505 27.7476578,0.0628405316 L0.214435216,15.9543688 L0.214435216,15.9550166 L0.213787375,15.9550166 C0.0835714286,16.0301661 0.00323920266,16.168804 0.00323920266,16.319103 L0.000647840532,48.1138206 C0.000647840532,48.1151163 0,48.1157641 0,48.116412 C0,48.2673588 0.0803322259,48.4066445 0.210548173,48.4811462 L27.7560797,64.378505 C27.8208638,64.4160797 27.8934219,64.435515 27.9666279,64.435515 C27.9679236,64.435515 27.9692193,64.4342193 27.970515,64.4342193 C27.9724585,64.4342193 27.9737542,64.435515 27.9750498,64.435515 C28.0482558,64.435515 28.120814,64.4160797 28.185598,64.378505 L55.7265947,48.4804983 C55.7272425,48.4798505 55.7278904,48.4798505 55.7285382,48.4798505 C55.8587542,48.404701 55.9390864,48.2660631 55.9390864,48.1151163 L55.9384385,16.3184551 Z" id="Fill-21"></path>
            </g>
        </g>
    </g>
</svg>