<?xml version="1.0" encoding="UTF-8"?>
<svg width="230px" height="66px" viewBox="0 0 230 66" version="1.1" xmlns="http://www.w3.org/2000/svg" xmlns:xlink="http://www.w3.org/1999/xlink">
    <!-- Generator: Sketch 43.2 (39069) - http://www.bohemiancoding.com/sketch -->
    <title>logo-str-sistemas</title>
    <desc>Created with Sketch.</desc>
    <defs></defs>
    <g id="Page-1" stroke="none" stroke-width="1" fill="none" fill-rule="evenodd">
        <g id="logo-str-sistemas">
            <g id="Page-1">
                <polygon id="Fill-1" fill="#FFFFFF" points="85 64 85 56 90.813639 56 90.813639 56.9440744 86.0640688 56.9440744 86.0640688 59.3942615 90.5119771 59.3942615 90.5119771 60.3328848 86.0640688 60.3328848 86.0640688 63.0559256 91 63.0559256 91 64"></polygon>
                <polygon id="Fill-2" fill="#FFFFFF" points="92 64 93 64 93 56 92 56"></polygon>
                <path d="M98.4505684,65 L98.9286945,62.4709979 L98,62.4709979 L98,61.5864191 L99.0935814,61.5864191 L99.5000574,59.4314214 L98,59.4314214 L98,58.5468426 L99.6649443,58.5468426 L100.142841,56 L100.967046,56 L100.489149,58.5468426 L102.219773,58.5468426 L102.697899,56 L103.527615,56 L103.049489,58.5468426 L104,58.5468426 L104,59.4314214 L102.884602,59.4314214 L102.472615,61.5864191 L104,61.5864191 L104,62.4709979 L102.307728,62.4709979 L101.829831,65 L101.005626,65 L101.478011,62.4709979 L99.7528993,62.4709979 L99.2747732,65 L98.4505684,65 Z M99.9175566,61.5864191 L101.642898,61.5864191 L102.055115,59.4314214 L100.324262,59.4314214 L99.9175566,61.5864191 Z" id="Fill-3" fill="#FFFFFF"></path>
                <path d="M105,62.1567536 L106.008909,62.0054071 C106.065776,62.3909917 106.223581,62.6864777 106.482324,62.8918878 C106.741304,63.0972979 107.103118,63.200003 107.568003,63.200003 C108.036679,63.200003 108.384276,63.1090008 108.611032,62.927019 C108.837788,62.7450372 108.951284,62.531539 108.951284,62.2864792 C108.951284,62.0666777 108.851057,61.8936877 108.650839,61.7675769 C108.511042,61.6810706 108.163207,61.5711811 107.60781,61.4378408 C106.859302,61.2576664 106.340631,61.1018014 106.051559,60.9702684 C105.762487,60.8387354 105.543313,60.6567536 105.394038,60.424323 C105.244527,60.1918923 105.169889,59.9351297 105.169889,59.6540576 C105.169889,59.3981986 105.231495,59.1612495 105.354232,58.9432328 C105.476969,58.7252161 105.644252,58.544138 105.855843,58.3999985 C106.014596,58.2882791 106.231163,58.1936847 106.505071,58.1162153 C106.778978,58.038746 107.073026,58 107.386504,58 C107.858971,58 108.27386,58.0648628 108.630935,58.1945884 C108.988011,58.3243139 109.25173,58.4999925 109.421856,58.7216239 C109.591982,58.9432328 109.709032,59.2396451 109.773244,59.6108157 L108.775472,59.7405413 C108.730215,59.4450327 108.598948,59.2144094 108.381433,59.048649 C108.164155,58.8828885 107.857075,58.799997 107.460193,58.799997 C106.991754,58.799997 106.657189,58.8738741 106.456971,59.0216285 C106.256516,59.1693602 106.156525,59.3423502 106.156525,59.5405308 C106.156525,59.6666642 106.197991,59.7801684 106.281158,59.8810887 C106.364326,59.9855785 106.494645,60.0720622 106.672353,60.1405398 C106.774239,60.1765747 107.074922,60.2594662 107.57369,60.3891918 C108.295659,60.572981 108.799166,60.7234238 109.084447,60.8405428 C109.369728,60.9576618 109.593877,61.1279182 109.756184,61.3513571 C109.918728,61.5747733 110,61.8522532 110,62.1837741 C110,62.5081107 109.900957,62.8135148 109.702398,63.100009 C109.504075,63.3864807 109.21761,63.6081122 108.843475,63.7648583 C108.469339,63.921627 108.046157,64 107.57369,64 C106.791299,64 106.195147,63.8450387 105.784997,63.5351387 C105.375083,63.2252161 105.113259,62.765777 105,62.1567536 Z" id="Fill-4" fill="#FFFFFF"></path>
                <path d="M110.579639,65.8821092 L110.456186,64.9765629 C110.698969,65.0337167 110.910567,65.0622935 111.091495,65.0622935 C111.338144,65.0622935 111.535309,65.0265725 111.683505,64.9551303 C111.831443,64.8836881 111.952577,64.7836467 112.047165,64.6550508 C112.11701,64.5586151 112.230155,64.3192726 112.38634,63.9370458 C112.406959,63.883453 112.439948,63.8048666 112.485052,63.7012642 L110,58 L111.196392,58 L112.559021,61.2953876 C112.735825,61.7133355 112.894072,62.152716 113.033763,62.6135292 C113.16134,62.1705654 113.313402,61.7383291 113.490206,61.3168203 L114.889948,58 L116,58 L113.508763,63.7870172 C113.241495,64.4121474 113.033763,64.8425921 112.885825,65.0783736 C112.68866,65.3963025 112.462371,65.6293742 112.207474,65.7776335 C111.952577,65.9258704 111.648454,66 111.294845,66 C111.081186,66 110.842784,65.9606956 110.579639,65.8821092 Z" id="Fill-5" fill="#FFFFFF"></path>
                <path d="M116,62.1567536 L117.008909,62.0054071 C117.065776,62.3909917 117.223581,62.6864777 117.482324,62.8918878 C117.741304,63.0972979 118.103118,63.200003 118.568003,63.200003 C119.036679,63.200003 119.384276,63.1090008 119.611032,62.927019 C119.837788,62.7450372 119.951284,62.531539 119.951284,62.2864792 C119.951284,62.0666777 119.851057,61.8936877 119.650839,61.7675769 C119.511042,61.6810706 119.163207,61.5711811 118.60781,61.4378408 C117.859302,61.2576664 117.340631,61.1018014 117.051559,60.9702684 C116.762487,60.8387354 116.543313,60.6567536 116.394038,60.424323 C116.244527,60.1918923 116.169889,59.9351297 116.169889,59.6540576 C116.169889,59.3981986 116.231495,59.1612495 116.354232,58.9432328 C116.476969,58.7252161 116.644252,58.544138 116.855843,58.3999985 C117.014596,58.2882791 117.231163,58.1936847 117.505071,58.1162153 C117.778978,58.038746 118.073026,58 118.386504,58 C118.858971,58 119.27386,58.0648628 119.630935,58.1945884 C119.988011,58.3243139 120.25173,58.4999925 120.421856,58.7216239 C120.591982,58.9432328 120.709032,59.2396451 120.773244,59.6108157 L119.775472,59.7405413 C119.730215,59.4450327 119.598948,59.2144094 119.381433,59.048649 C119.164155,58.8828885 118.857075,58.799997 118.460193,58.799997 C117.991754,58.799997 117.657189,58.8738741 117.456971,59.0216285 C117.256516,59.1693602 117.156525,59.3423502 117.156525,59.5405308 C117.156525,59.6666642 117.197991,59.7801684 117.281158,59.8810887 C117.364326,59.9855785 117.494645,60.0720622 117.672353,60.1405398 C117.774239,60.1765747 118.074922,60.2594662 118.57369,60.3891918 C119.295659,60.572981 119.799166,60.7234238 120.084447,60.8405428 C120.369728,60.9576618 120.593877,61.1279182 120.756184,61.3513571 C120.918728,61.5747733 121,61.8522532 121,62.1837741 C121,62.5081107 120.900957,62.8135148 120.702398,63.100009 C120.504075,63.3864807 120.21761,63.6081122 119.843475,63.7648583 C119.469339,63.921627 119.046157,64 118.57369,64 C117.791299,64 117.195147,63.8450387 116.784997,63.5351387 C116.375083,63.2252161 116.113259,62.765777 116,62.1567536 Z" id="Fill-6" fill="#FFFFFF"></path>
                <path d="M126.625839,63.1621607 C126.216847,63.4684685 125.82324,63.6846778 125.444763,63.8108112 C125.066541,63.9369446 124.660627,64 124.227018,64 C123.511347,64 122.961067,63.8459424 122.576691,63.5378498 C122.192316,63.2297346 122,62.8360394 122,62.3567642 C122,62.0756695 122.072567,61.8189294 122.217702,61.5864762 C122.362836,61.3540455 122.553101,61.1675679 122.788239,61.0270205 C123.023377,60.8864958 123.28826,60.7801759 123.582888,60.7081062 C123.799564,60.6576573 124.126758,60.6090159 124.564469,60.5621592 C125.456045,60.4684685 126.112483,60.3567491 126.533783,60.2270235 C126.537886,60.0936832 126.539938,60.0090068 126.539938,59.972972 C126.539938,59.5765657 126.435574,59.297301 126.227104,59.1351327 C125.944784,58.9153086 125.525535,58.8053966 124.969358,58.8053966 C124.449848,58.8053966 124.066499,58.885577 123.819052,59.0459379 C123.571606,59.2062988 123.388521,59.4900819 123.270054,59.8972874 L122.190265,59.7675618 C122.288217,59.3603564 122.449763,59.0315239 122.674901,58.7810871 C122.899782,58.5306278 123.224924,58.3378468 123.650327,58.202699 C124.07573,58.0675739 124.568571,58 125.128852,58 C125.685029,58 126.1371,58.0576558 126.484807,58.1729674 C126.832258,58.2882791 127.08791,58.4333223 127.251506,58.6080971 C127.415103,58.7828719 127.529723,59.0035997 127.595111,59.2702579 C127.632036,59.4360409 127.650498,59.7351417 127.650498,60.1675603 L127.650498,61.4648613 C127.650498,62.3693707 127.673832,62.941433 127.721014,63.1810932 C127.767939,63.4207308 127.86102,63.6504503 128,63.8702744 L126.846617,63.8702744 C126.732254,63.6684791 126.658661,63.4324337 126.625839,63.1621607 Z M126.533783,60.9891782 C126.132997,61.1333404 125.531689,61.255859 124.730117,61.3567566 C124.275995,61.4144124 123.954955,61.4792752 123.766999,61.551345 C123.578785,61.6234148 123.433651,61.7288309 123.331339,61.8675709 C123.229027,62.0063108 123.177999,62.1603684 123.177999,62.3297211 C123.177999,62.5891948 123.289286,62.8054041 123.512372,62.9783715 C123.735202,63.1513616 124.06137,63.2378453 124.490876,63.2378453 C124.916278,63.2378453 125.2945,63.1558575 125.625796,62.9918818 C125.957092,62.8279287 126.200436,62.6036088 126.355827,62.3189219 C126.47455,62.0990978 126.533783,61.7747839 126.533783,61.3459349 L126.533783,60.9891782 Z" id="Fill-7" fill="#FFFFFF"></path>
                <path d="M132.093488,63.8711451 L132.093488,63.1516716 C131.727933,63.7172239 131.190379,64 130.481053,64 C130.02133,64 129.59882,63.8747132 129.213297,63.624162 C128.827774,63.3736108 128.529158,63.0237143 128.31745,62.5744949 C128.105741,62.1252756 128,61.6089584 128,61.0254983 C128,60.4563779 128.095757,59.9400383 128.287724,59.4765017 C128.479464,59.0129652 128.767189,58.6577278 129.150896,58.4107446 C129.534604,58.1637615 129.963467,58.04027 130.437486,58.04027 C130.785115,58.04027 131.094395,58.1127537 131.366009,58.257721 C131.637395,58.4026884 131.85818,58.591505 132.028364,58.824171 L132.028364,56 L133,56 L133,63.8711451 L132.093488,63.8711451 Z M129.004311,61.0254983 C129.004311,61.7556986 129.159973,62.3015703 129.471296,62.6630911 C129.782392,63.0246119 130.149762,63.2053723 130.573179,63.2053723 C131.000454,63.2053723 131.363286,63.0326682 131.661902,62.6872598 C131.96029,62.341829 132.109598,61.8147627 132.109598,61.1060383 C132.109598,60.3257278 131.957794,59.7530169 131.653733,59.387928 C131.349671,59.0228167 130.97504,58.840261 130.529839,58.840261 C130.09553,58.840261 129.732698,59.015658 129.441343,59.3664522 C129.149989,59.7172239 129.004311,60.2702542 129.004311,61.0254983 Z" id="Fill-8" fill="#FFFFFF"></path>
                <path d="M135,64 L135,58.1325923 L135.895059,58.1325923 L135.895059,58.9558102 C136.080484,58.6685037 136.327021,58.4373792 136.634436,58.2624368 C136.942084,58.0874712 137.292486,58 137.685178,58 C138.122716,58 138.481251,58.0902422 138.761015,58.2707267 C139.04078,58.4511881 139.238287,58.7034876 139.353074,59.0276253 C139.820123,58.3425418 140.427982,58 141.176653,58 C141.762206,58 142.212524,58.1611336 142.527608,58.483424 C142.842691,58.8057144 143,59.3020236 143,59.9723747 L143,64 L142.005025,64 L142.005025,60.3038555 C142.005025,59.9060785 141.972494,59.6196957 141.907665,59.4447532 C141.842836,59.2697876 141.725028,59.1289054 141.554707,59.0221064 C141.384153,58.9152844 141.184089,58.8618733 140.954283,58.8618733 C140.539051,58.8618733 140.194458,58.999084 139.920271,59.2734823 C139.645851,59.5478806 139.508757,59.9871072 139.508757,60.591162 L139.508757,64 L138.507973,64 L138.507973,60.187843 C138.507973,59.7458454 138.426646,59.4143646 138.263528,59.1933773 C138.10041,58.972367 137.833425,58.8618733 137.462808,58.8618733 C137.181184,58.8618733 136.920939,58.9355358 136.681838,59.0828606 C136.442737,59.2302085 136.269395,59.4456769 136.162044,59.7292887 C136.05446,60.0129005 136.000784,60.4217385 136.000784,60.9558026 L136.000784,64 L135,64 Z" id="Fill-9" fill="#FFFFFF"></path>
                <path d="M145,57.1295958 L145,56 L146,56 L146,57.1295958 L145,57.1295958 Z M145,64 L145,58.2046346 L146,58.2046346 L146,64 L145,64 Z" id="Fill-10" fill="#FFFFFF"></path>
                <path d="M147,64 L147,58.1325923 L147.93859,58.1325923 L147.93859,58.9668481 C148.390449,58.3222904 149.043297,58 149.896891,58 C150.267629,58 150.608582,58.0635252 150.919508,58.1905986 C151.230434,58.3176721 151.463144,58.4843477 151.617639,58.6906025 C151.772133,58.8968572 151.880134,59.1418136 151.942125,59.4254024 C151.980628,59.6095815 152,59.9318488 152,60.3922735 L152,64 L150.957042,64 L150.957042,60.430929 C150.957042,60.0257857 150.916602,59.722823 150.83548,59.5220872 C150.754359,59.3213513 150.610519,59.1611413 150.403719,59.0414341 C150.197162,58.9217269 149.954766,58.8618733 149.676773,58.8618733 C149.23242,58.8618733 148.84909,58.996313 148.52654,59.2651924 C148.203991,59.5340718 148.042958,60.0441898 148.042958,60.7955695 L148.042958,64 L147,64 Z" id="Fill-11" fill="#FFFFFF"></path>
                <path d="M161.093302,63.8711451 L161.093302,63.1516716 C160.727764,63.7172239 160.190234,64 159.48094,64 C159.021238,64 158.598748,63.8747132 158.213242,63.624162 C157.827963,63.3736108 157.529361,63.0237143 157.317662,62.5744949 C157.105963,62.1252756 157,61.6089584 157,61.0254983 C157,60.4563779 157.095979,59.9400383 157.287711,59.4765017 C157.479443,59.0129652 157.767154,58.6577278 158.150844,58.4107446 C158.534534,58.1637615 158.963378,58.04027 159.437602,58.04027 C159.784988,58.04027 160.094482,58.1127537 160.365856,58.257721 C160.63723,58.4026884 160.858005,58.591505 161.028181,58.824171 L161.028181,56 L162,56 L162,63.8711451 L161.093302,63.8711451 Z M158.004266,61.0254983 C158.004266,61.7556986 158.15992,62.3015703 158.471229,62.6630911 C158.782538,63.0246119 159.149891,63.2053723 159.573289,63.2053723 C160.000318,63.2053723 160.363133,63.0326682 160.661735,62.6872598 C160.960338,62.341829 161.109639,61.8147627 161.109639,61.1060383 C161.109639,60.3257278 160.957615,59.7530169 160.653567,59.387928 C160.349519,59.0228167 159.974905,58.840261 159.529724,58.840261 C159.095435,58.840261 158.732619,59.015658 158.441278,59.3664522 C158.149936,59.7172239 158.004266,60.2702542 158.004266,61.0254983 Z" id="Fill-12" fill="#FFFFFF"></path>
                <path d="M167.823464,62.0216285 L168.963369,62.1459545 C168.783546,62.7333343 168.45054,63.1891813 167.964351,63.5135178 C167.478162,63.8378317 166.856978,64 166.101055,64 C165.14917,64 164.394271,63.7414525 163.836614,63.224335 C163.278957,62.7072175 163,61.9819788 163,61.0486414 C163,60.082884 163.28203,59.3333358 163.845835,58.799997 C164.40964,58.2666581 165.140973,58 166.039833,58 C166.910259,58 167.621099,58.2612585 168.172608,58.7837756 C168.724373,59.3063153 169,60.0414495 169,60.9891782 C169,61.0468566 168.997951,61.1333404 168.993852,61.248652 L164.139905,61.248652 C164.180891,61.8792737 164.383,62.3621637 164.746745,62.6972995 C165.110234,63.0324352 165.56389,63.200003 166.107202,63.200003 C166.511933,63.200003 166.856978,63.1063123 167.143107,62.9189309 C167.42898,62.7315269 167.655936,62.4324261 167.823464,62.0216285 Z M164.201127,60.448655 L167.835504,60.448655 C167.786577,59.965765 167.647739,59.6036088 167.41899,59.3621637 C167.06754,58.9873784 166.611835,58.799997 166.052128,58.799997 C165.545447,58.799997 165.119455,58.9495587 164.77441,59.2486369 C164.429108,59.5477377 164.238014,59.9477362 164.201127,60.448655 Z" id="Fill-13" fill="#FFFFFF"></path>
                <path d="M174.849443,63.0324836 L175,63.911544 C174.70639,63.9705147 174.444005,64 174.212361,64 C173.834033,64 173.540423,63.9428779 173.332015,63.8286338 C173.123608,63.7143666 172.976924,63.564167 172.891964,63.378035 C172.807003,63.1919031 172.764402,62.8002981 172.764402,62.2031969 L172.764402,58.8251619 L172,58.8251619 L172,58.0511487 L172.764402,58.0511487 L172.764402,56.5971011 L173.801113,56 L173.801113,58.0511487 L174.849443,58.0511487 L174.849443,58.8251619 L173.801113,58.8251619 L173.801113,62.2584704 C173.801113,62.5422783 173.819509,62.7247361 173.856059,62.8058208 C173.892851,62.8869055 173.952638,62.9513989 174.035662,62.9993241 C174.118686,63.0472262 174.237292,63.0711888 174.391964,63.0711888 C174.507665,63.0711888 174.660158,63.0582948 174.849443,63.0324836 Z" id="Fill-14" fill="#FFFFFF"></path>
                <path d="M180.065049,63.8674077 L180.065049,63.0055343 C179.584951,63.6685191 178.932524,64 178.10801,64 C177.744175,64 177.404369,63.9337038 177.088835,63.8011115 C176.773301,63.6685191 176.539078,63.5018435 176.386165,63.3011076 C176.233252,63.1003718 176.125728,62.8545148 176.063835,62.5635367 C176.021359,62.3683198 176,62.0589376 176,61.6353672 L176,58 L177.045388,58 L177.045388,61.2541469 C177.045388,61.7734785 177.066505,62.1233865 177.109223,62.3038709 C177.175,62.5653841 177.31432,62.7707151 177.527184,62.9198873 C177.740291,63.0690595 178.003398,63.1436456 178.31699,63.1436456 C178.630583,63.1436456 178.925,63.0672121 179.199757,62.9143684 C179.474515,62.7615016 179.669175,62.5533995 179.783495,62.2900621 C179.897573,62.0267017 179.954612,61.6445577 179.954612,61.1436533 L179.954612,58 L181,58 L181,63.8674077 L180.065049,63.8674077 Z" id="Fill-15" fill="#FFFFFF"></path>
                <path d="M190.823258,62.0216285 L191.963115,62.1459545 C191.783299,62.7333343 191.450307,63.1891813 190.964139,63.5135178 C190.477971,63.8378317 189.85707,64 189.101178,64 C188.149078,64 187.394211,63.7414525 186.836578,63.224335 C186.278945,62.7072175 186,61.9819788 186,61.0486414 C186,60.082884 186.282018,59.3333358 186.845799,58.799997 C187.40958,58.2666581 188.140881,58 189.039703,58 C189.910092,58 190.620902,58.2612585 191.172643,58.7837756 C191.724129,59.3063153 192,60.0414495 192,60.9891782 C192,61.0468566 191.997951,61.1333404 191.993852,61.248652 L187.139857,61.248652 C187.18084,61.8792737 187.383197,62.3621637 187.74667,62.6972995 C188.1104,63.0324352 188.563781,63.200003 189.107326,63.200003 C189.511783,63.200003 189.85707,63.1063123 190.14293,62.9189309 C190.429047,62.7315269 190.655738,62.4324261 190.823258,62.0216285 Z M187.201332,60.448655 L190.835553,60.448655 C190.786373,59.965765 190.647541,59.6036088 190.418801,59.3621637 C190.067367,58.9873784 189.611936,58.799997 189.051998,58.799997 C188.545338,58.799997 188.119621,58.9495587 187.774334,59.2486369 C187.429047,59.5477377 187.237961,59.9477362 187.201332,60.448655 Z" id="Fill-16" fill="#FFFFFF"></path>
                <path d="M192,64 L192,58.1325923 L192.895059,58.1325923 L192.895059,58.9558102 C193.080484,58.6685037 193.327021,58.4373792 193.634436,58.2624368 C193.942084,58.0874712 194.292486,58 194.685178,58 C195.122716,58 195.481251,58.0902422 195.761015,58.2707267 C196.04078,58.4511881 196.238287,58.7034876 196.353074,59.0276253 C196.820123,58.3425418 197.427982,58 198.176653,58 C198.762206,58 199.212524,58.1611336 199.527608,58.483424 C199.842691,58.8057144 200,59.3020236 200,59.9723747 L200,64 L199.005025,64 L199.005025,60.3038555 C199.005025,59.9060785 198.972494,59.6196957 198.907665,59.4447532 C198.842836,59.2697876 198.725261,59.1289054 198.554707,59.0221064 C198.384153,58.9152844 198.184089,58.8618733 197.954283,58.8618733 C197.539051,58.8618733 197.194458,58.999084 196.920271,59.2734823 C196.645851,59.5478806 196.508757,59.9871072 196.508757,60.591162 L196.508757,64 L195.507973,64 L195.507973,60.187843 C195.507973,59.7458454 195.426646,59.4143646 195.263528,59.1933773 C195.10041,58.972367 194.833425,58.8618733 194.462808,58.8618733 C194.181184,58.8618733 193.920939,58.9355358 193.681838,59.0828606 C193.442737,59.2302085 193.269395,59.4456769 193.162044,59.7292887 C193.05446,60.0129005 193.000784,60.4217385 193.000784,60.9558026 L193.000784,64 L192,64 Z" id="Fill-17" fill="#FFFFFF"></path>
                <path d="M202,66 L202,58.1285959 L202.889206,58.1285959 L202.889206,58.8680559 C203.099098,58.578704 203.335736,58.36169 203.599801,58.217014 C203.863638,58.072338 204.183689,58 204.559726,58 C205.051362,58 205.485199,58.125035 205.861236,58.3750826 C206.237273,58.6251302 206.521057,58.9778843 206.712589,59.4333449 C206.904347,59.8888055 207,60.3880273 207,60.9310102 C207,61.513275 206.894374,62.0375127 206.682896,62.5036785 C206.471191,62.9698666 206.16406,63.3270775 205.760823,63.5753558 C205.357813,63.8236117 204.93395,63.9477509 204.489233,63.9477509 C204.163743,63.9477509 203.871798,63.8798697 203.6134,63.7441295 C203.354776,63.6083894 203.142391,63.4369282 202.976019,63.2297459 L202.976019,66 L202,66 Z M202.883993,61.0060356 C202.883993,61.7383291 203.034045,62.2795203 203.333923,62.6296093 C203.634027,62.9796759 203.997371,63.1547204 204.423954,63.1547204 C204.858017,63.1547204 205.229294,62.9734275 205.538465,62.6108417 C205.847636,62.2482559 206.002221,61.6865279 206.002221,60.9256576 C206.002221,60.200486 205.851263,59.6575031 205.549345,59.296709 C205.247427,58.9359148 204.886804,58.7555177 204.467474,58.7555177 C204.05177,58.7555177 203.683893,58.9475382 203.363842,59.3315342 C203.043792,59.7155527 202.883993,60.2737198 202.883993,61.0060356 Z" id="Fill-18" fill="#FFFFFF"></path>
                <path d="M208,64 L208,58.1325923 L208.842304,58.1325923 L208.842304,59.0221064 C209.057226,58.6059022 209.255632,58.3314809 209.43774,58.1988885 C209.619631,58.0662962 209.819775,58 210.038175,58 C210.353712,58 210.674248,58.106822 211,58.3204431 L210.677725,59.2430937 C210.448895,59.0994404 210.220283,59.0276253 209.991452,59.0276253 C209.786961,59.0276253 209.603115,59.0929978 209.440348,59.2237659 C209.277363,59.354511 209.161318,59.5359191 209.091996,59.7679441 C208.987903,60.1215468 208.935965,60.5082861 208.935965,60.9281849 L208.935965,64 L208,64 Z" id="Fill-19" fill="#FFFFFF"></path>
                <path d="M216.823464,62.0216285 L217.963369,62.1459545 C217.783546,62.7333343 217.45054,63.1891813 216.964351,63.5135178 C216.478162,63.8378317 215.856978,64 215.101055,64 C214.14917,64 213.394271,63.7414525 212.836614,63.224335 C212.278957,62.7072175 212,61.9819788 212,61.0486414 C212,60.082884 212.28203,59.3333358 212.845835,58.799997 C213.40964,58.2666581 214.140973,58 215.039833,58 C215.910259,58 216.621099,58.2612585 217.172608,58.7837756 C217.724373,59.3063153 218,60.0414495 218,60.9891782 C218,61.0468566 217.997951,61.1333404 217.993852,61.248652 L213.139905,61.248652 C213.180891,61.8792737 213.383,62.3621637 213.746745,62.6972995 C214.110234,63.0324352 214.56389,63.200003 215.107202,63.200003 C215.511677,63.200003 215.856978,63.1063123 216.143107,62.9189309 C216.42898,62.7315269 216.655936,62.4324261 216.823464,62.0216285 Z M213.201127,60.448655 L216.835504,60.448655 C216.786577,59.965765 216.647739,59.6036088 216.418734,59.3621637 C216.06754,58.9873784 215.611835,58.799997 215.052128,58.799997 C214.545447,58.799997 214.119455,58.9495587 213.774154,59.2486369 C213.429108,59.5477377 213.238014,59.9477362 213.201127,60.448655 Z" id="Fill-20" fill="#FFFFFF"></path>
                <path d="M218,62.1567536 L219.009098,62.0054071 C219.065725,62.3909917 219.223523,62.6864777 219.482491,62.8918878 C219.741459,63.0972979 220.103255,63.200003 220.568118,63.200003 C221.036772,63.200003 221.384353,63.1090008 221.611098,62.927019 C221.837843,62.7450372 221.951334,62.531539 221.951334,62.2864792 C221.951334,62.0666777 221.851111,61.8936877 221.650903,61.7675769 C221.510875,61.6810706 221.163294,61.5711811 220.607686,61.4378408 C219.859451,61.2576664 219.340805,61.1018014 219.051746,60.9702684 C218.762451,60.8387354 218.543288,60.6567536 218.39402,60.424323 C218.244752,60.1918923 218.170118,59.9351297 218.170118,59.6540576 C218.170118,59.3981986 218.231484,59.1612495 218.354452,58.9432328 C218.477183,58.7252161 218.644458,58.544138 218.856039,58.3999985 C219.014785,58.2882791 219.231105,58.1936847 219.505236,58.1162153 C219.779131,58.038746 220.072928,58 220.386627,58 C220.859072,58 221.273705,58.0648628 221.631,58.1945884 C221.988059,58.3243139 222.251765,58.4999925 222.421646,58.7216239 C222.591764,58.9432328 222.709046,59.2396451 222.773255,59.6108157 L221.77553,59.7405413 C221.730038,59.4450327 221.598777,59.2144094 221.38151,59.048649 C221.164242,58.8828885 220.857177,58.799997 220.460314,58.799997 C219.99166,58.799997 219.657347,58.8738741 219.456902,59.0216285 C219.256693,59.1693602 219.156471,59.3423502 219.156471,59.5405308 C219.156471,59.6666642 219.198171,59.7801684 219.281334,59.8810887 C219.364261,59.9855785 219.494811,60.0720622 219.672274,60.1405398 C219.774392,60.1765747 220.074823,60.2594662 220.573805,60.3891918 C221.295503,60.572981 221.799223,60.7234238 222.08449,60.8405428 C222.369758,60.9576618 222.59366,61.1279182 222.756196,61.3513571 C222.918732,61.5747733 223,61.8522532 223,62.1837741 C223,62.5081107 222.900725,62.8135148 222.702412,63.100009 C222.503862,63.3864807 222.217647,63.6081122 221.843529,63.7648583 C221.469412,63.921627 221.046012,64 220.573805,64 C219.791451,64 219.195328,63.8450387 218.785196,63.5351387 C218.375065,63.2252161 218.113491,62.765777 218,62.1567536 Z" id="Fill-21" fill="#FFFFFF"></path>
                <path d="M228.625839,63.1621607 C228.21659,63.4684685 227.822984,63.6846778 227.444763,63.8108112 C227.066285,63.9369446 226.66037,64 226.227018,64 C225.51109,64 224.961067,63.8459424 224.576691,63.5378498 C224.192059,63.2297346 224,62.8360394 224,62.3567642 C224,62.0756695 224.072567,61.8189294 224.217702,61.5864762 C224.362836,61.3540455 224.553101,61.1675679 224.788239,61.0270205 C225.023377,60.8864958 225.28826,60.7801759 225.582632,60.7081062 C225.799564,60.6576573 226.126758,60.6090159 226.564212,60.5621592 C227.456045,60.4684685 228.112483,60.3567491 228.533783,60.2270235 C228.537886,60.0936832 228.539938,60.0090068 228.539938,59.972972 C228.539938,59.5765657 228.435574,59.297301 228.226847,59.1351327 C227.944784,58.9153086 227.525535,58.8053966 226.969358,58.8053966 C226.449848,58.8053966 226.066499,58.885577 225.819052,59.0459379 C225.571349,59.2062988 225.388521,59.4900819 225.269798,59.8972874 L224.190008,59.7675618 C224.288217,59.3603564 224.449763,59.0315239 224.674644,58.7810871 C224.899782,58.5306278 225.224924,58.3378468 225.650327,58.202699 C226.075473,58.0675739 226.568315,58 227.128852,58 C227.685029,58 228.136843,58.0576558 228.484551,58.1729674 C228.832258,58.2882791 229.08791,58.4333223 229.251506,58.6080971 C229.415103,58.7828719 229.529723,59.0035997 229.595111,59.2702579 C229.631779,59.4360409 229.650241,59.7351417 229.650241,60.1675603 L229.650241,61.4648613 C229.650241,62.3693707 229.673832,62.941433 229.720757,63.1810932 C229.767939,63.4207308 229.86102,63.6504503 230,63.8702744 L228.846617,63.8702744 C228.731997,63.6684791 228.658404,63.4324337 228.625839,63.1621607 Z M228.533783,60.9891782 C228.132997,61.1333404 227.531689,61.255859 226.72986,61.3567566 C226.275995,61.4144124 225.954955,61.4792752 225.766742,61.551345 C225.578529,61.6234148 225.433395,61.7288309 225.331083,61.8675709 C225.229027,62.0063108 225.177743,62.1603684 225.177743,62.3297211 C225.177743,62.5891948 225.289286,62.8054041 225.512116,62.9783715 C225.735202,63.1513616 226.06137,63.2378453 226.490619,63.2378453 C226.916022,63.2378453 227.2945,63.1558575 227.625796,62.9918818 C227.957092,62.8279287 228.200436,62.6036088 228.355827,62.3189219 C228.474294,62.0990978 228.533783,61.7747839 228.533783,61.3459349 L228.533783,60.9891782 Z" id="Fill-22" fill="#FFFFFF"></path>
                <path d="M37,46.1080756 L42.1169667,45.3332944 C42.3347748,46.3182946 42.7762524,47.0660306 43.4416339,47.5765492 C44.1067809,48.0870677 45.0382682,48.3423153 46.2358611,48.3423153 C47.5544325,48.3423153 48.5464089,48.102085 49.2117904,47.6216011 C49.6593638,47.2852647 49.8830333,46.8348154 49.8830333,46.2702299 C49.8830333,45.8858521 49.7620549,45.5675458 49.5200979,45.3152876 C49.2661839,45.075034 48.697632,44.8528105 47.8144424,44.6486171 C43.7016438,43.7477185 41.0947456,42.9248025 39.9939823,42.1802428 C38.4697945,41.1470143 37.7075833,39.7116116 37.7075833,37.8738009 C37.7075833,36.2160578 38.366869,34.8226941 39.6854404,33.6937099 C41.0040118,32.5644921 43.0484539,32 45.8185323,32 C48.4556751,32 50.4152447,32.4264636 51.6974757,33.2791573 C52.9797067,34.1320846 53.8628963,35.3932586 54.3468101,37.0629127 L49.5383854,37.945968 C49.3325345,37.2011748 48.9426368,36.6306103 48.3679892,36.2342747 C47.7933415,35.8377056 46.973689,35.6396546 45.9092662,35.6396546 C44.566546,35.6396546 43.6048141,35.8257945 43.0243051,36.1980744 C42.6369865,36.4624538 42.4435616,36.8048392 42.4435616,37.2252305 C42.4435616,37.5855993 42.6128377,37.8917843 42.9516242,38.1440191 C43.4113893,38.4803321 44.9988798,38.9549072 47.7147993,39.5675108 C50.4304843,40.1801143 52.3265168,40.9309799 53.4031313,41.819874 C54.4677886,42.7206792 55,43.9759443 55,45.5855526 C55,47.3393083 54.2621721,48.8468316 52.7862818,50.108099 C51.3103915,51.3693663 49.126918,52 46.2358611,52 C43.6109099,52 41.5331753,51.4714513 40.0031261,50.4144007 C38.4728424,49.3573268 37.4717222,47.9219006 37,46.1080756 Z" id="Fill-23" fill="#4B728D"></path>
                <path d="M67.5958554,31.9300483 L67.5958554,36.0698718 L64.2219287,36.0698718 L64.2219287,43.9794213 C64.2219287,45.5810697 64.2541694,46.5143386 64.3186509,46.7792279 C64.3831324,47.0441172 64.5295781,47.2627982 64.7579879,47.4352948 C64.9863978,47.6077675 65.264531,47.6940278 65.5926148,47.6940278 C66.0494344,47.6940278 66.7112781,47.5276875 67.5783727,47.1950547 L68,51.2238011 C66.8520476,51.741267 65.5517462,52 64.0990959,52 C63.2086154,52 62.4062294,51.8429061 61.6917107,51.5287423 C60.977192,51.2145546 60.4529392,50.8079982 60.1189523,50.3090251 C59.7851924,49.810052 59.5538309,49.1354922 59.4248679,48.2853935 C59.3195178,47.6816912 59.2668428,46.4619739 59.2668428,44.6262418 L59.2668428,36.0698718 L57,36.0698718 L57,31.9300483 L59.2668428,31.9300483 L59.2668428,28.0307284 L64.2219287,25 L64.2219287,31.9300483 L67.5958554,31.9300483 Z" id="Fill-24" fill="#4B728D"></path>
                <path d="M76.3095256,52 L71,52 L71,32.4418563 L75.9315817,32.4418563 L75.9315817,35.2228534 C76.7756076,33.9089814 77.5346693,33.043411 78.2085227,32.6261421 C78.8826203,32.2086345 79.6477857,32 80.5045074,32 C81.7137813,32 82.8788641,32.3253647 84,32.9760942 L82.3561394,37.4879934 C81.4618187,36.9232003 80.6302445,36.6408038 79.8619051,36.6408038 C79.1187131,36.6408038 78.4888067,36.8403672 77.9724299,37.2392553 C77.4558089,37.6383821 77.0495436,38.3597703 76.7536341,39.4031813 C76.4577245,40.446831 76.3095256,42.6322412 76.3095256,45.9594595 L76.3095256,52 Z" id="Fill-25" fill="#4B728D"></path>
                <path d="M85,45.8558175 L88.2290653,45.3513245 C88.4104893,46.6366009 88.9153824,47.6216011 89.7437445,48.3062784 C90.5721067,48.9909791 91.7302666,49.3333178 93.2177556,49.3333178 C94.7174333,49.3333178 95.8298857,49.0300054 96.5555816,48.4234041 C97.2812775,47.8168028 97.6441254,47.1050803 97.6441254,46.28826 C97.6441254,45.5555179 97.3234691,44.9789512 96.6826253,44.5585132 C96.2351597,44.2702415 95.1224729,43.9038705 93.3447993,43.4594235 C90.9501904,42.8587076 89.2901846,42.3392908 88.3650161,41.9009161 C87.4398476,41.4623078 86.7385292,40.8557766 86.2608263,40.0810888 C85.7831234,39.3061675 85.5442719,38.4504376 85.5442719,37.5134321 C85.5442719,36.6605048 85.7406973,35.8708698 86.1337826,35.1440599 C86.5268679,34.4172501 87.0619982,33.813755 87.7391737,33.3333411 C88.247114,32.9608277 88.9395253,32.6455342 89.8164079,32.3872271 C90.693056,32.1291536 91.6334603,32 92.6371521,32 C94.1490185,32 95.4761793,32.2160344 96.6191034,32.6485704 C97.7620275,33.0811063 98.6053912,33.666618 99.1496631,34.405339 C99.693935,35.1440599 100.068737,36.1319795 100.274539,37.3693313 L97.0815705,37.8016337 C96.9364782,36.8167503 96.5162028,36.0479013 95.8209786,35.4953202 C95.1255201,34.9429728 94.1429241,34.6666822 92.8729563,34.6666822 C91.3732786,34.6666822 90.3030179,34.9128447 89.662174,35.4054032 C89.0210958,35.8977281 88.7006739,36.4743649 88.7006739,37.1350799 C88.7006739,37.5554712 88.8335775,37.9338234 89.0998535,38.2701365 C89.3658951,38.6185941 89.7831234,38.9067957 90.3515382,39.1349748 C90.6780545,39.2552534 91.6395546,39.5315439 93.2358043,39.9638463 C95.5457955,40.5764499 97.157281,41.0781169 98.0702608,41.4683802 C98.9834749,41.858877 99.7000293,42.4264052 100.219924,43.1711285 C100.740053,43.915875 101,44.840806 101,45.9459213 C101,47.0270043 100.682625,48.0450286 100.047641,48.9999708 C99.4126575,49.9549364 98.4966305,50.6936807 97.2993261,51.2162037 C96.1020217,51.7387268 94.7476707,52 93.2358043,52 C90.7324348,52 88.8246704,51.4834792 87.512511,50.4504376 C86.2003516,49.417396 85.3628479,47.8858638 85,45.8558175 Z" id="Fill-26" fill="#FFFFFF"></path>
                <path d="M105,28.8124702 L105,25 L108,25 L108,28.8124702 L105,28.8124702 Z M105,52 L105,32.4406432 L108,32.4406432 L108,52 L105,52 Z" id="Fill-27" fill="#FFFFFF"></path>
                <path d="M112,45.8558175 L115.229018,45.3513245 C115.410439,46.6366009 115.915325,47.6216011 116.743675,48.3062784 C117.572025,48.9909791 118.730168,49.3333178 120.217635,49.3333178 C121.717291,49.3333178 122.829961,49.0300054 123.555412,48.4234041 C124.281098,47.8168028 124.64394,47.1050803 124.64394,46.28826 C124.64394,45.5555179 124.323523,44.9789512 123.682454,44.5585132 C123.234995,44.2702415 122.122325,43.9038705 120.344677,43.4594235 C117.950103,42.8587076 116.290122,42.3392908 115.364967,41.9009161 C114.439812,41.4623078 113.738504,40.8557766 113.260808,40.0810888 C112.783112,39.3061675 112.544264,38.4504376 112.544264,37.5134321 C112.544264,36.6605048 112.740686,35.8708698 113.133766,35.1440599 C113.526845,34.4172501 114.061968,33.813755 114.739134,33.3333411 C115.247066,32.9608277 115.939468,32.6455342 116.816337,32.3872271 C117.692973,32.1291536 118.633363,32 119.63704,32 C121.148884,32 122.476026,32.2160344 123.618933,32.6485704 C124.761841,33.0811063 125.605426,33.666618 126.149456,34.405339 C126.69372,35.1440599 127.068751,36.1319795 127.274315,37.3693313 L124.081628,37.8016337 C123.936538,36.8167503 123.516268,36.0479013 122.82082,35.4953202 C122.125372,34.9429728 121.14279,34.6666822 119.872841,34.6666822 C118.37342,34.6666822 117.30294,34.9128447 116.662106,35.4054032 C116.021037,35.8977281 115.70062,36.4743649 115.70062,37.1350799 C115.70062,37.5554712 115.833756,37.9338234 116.099793,38.2701365 C116.365831,38.6185941 116.783053,38.9067957 117.35146,39.1349748 C117.677971,39.2552534 118.639457,39.5315439 120.235684,39.9638463 C122.545641,40.5764499 124.157103,41.0781169 125.070304,41.4683802 C125.98327,41.858877 126.699814,42.4264052 127.219935,43.1711285 C127.739822,43.915875 128,44.840806 128,45.9459213 C128,47.0270043 127.682396,48.0450286 127.047421,48.9999708 C126.412681,49.9549364 125.496433,50.6936807 124.299146,51.2162037 C123.101859,51.7387268 121.747528,52 120.235684,52 C117.732351,52 115.824614,51.4834792 114.512474,50.4504376 C113.200334,49.417396 112.362843,47.8858638 112,45.8558175 Z" id="Fill-28" fill="#FFFFFF"></path>
                <path d="M138.548305,48.7346239 L139,51.7014458 C138.119734,51.9004739 137.332186,52 136.637132,52 C135.502058,52 134.621567,51.8071878 133.996109,51.4215633 C133.37065,51.0359389 132.930405,50.5290207 132.675597,49.9008331 C132.420789,49.2726212 132.293497,47.9509433 132.293497,45.9357266 L132.293497,34.5349177 L130,34.5349177 L130,31.9225684 L132.293497,31.9225684 L132.293497,27.0151925 L135.403502,25 L135.403502,31.9225684 L138.548305,31.9225684 L138.548305,34.5349177 L135.403502,34.5349177 L135.403502,46.1223229 C135.403502,47.0801682 135.458505,47.6959242 135.56851,47.9695908 C135.678515,48.2432574 135.858116,48.4609572 136.107087,48.622666 C136.356282,48.7843748 136.71234,48.8652292 137.175709,48.8652292 C137.523236,48.8652292 137.980768,48.8216941 138.548305,48.7346239 Z" id="Fill-29" fill="#FFFFFF"></path>
                <path d="M155.469941,45.4053682 L158.889767,45.8197806 C158.350482,47.7777531 157.351499,49.2972809 155.892816,50.3783639 C154.434134,51.4594468 152.571106,52 150.303259,52 C147.447424,52 145.182903,51.1381277 143.509694,49.4144066 C141.836486,47.6906621 141,45.2732485 141,42.1620258 C141,38.9429961 141.845751,36.4444704 143.537252,34.6666822 C145.228754,32.8888941 147.422955,32 150.119617,32 C152.730278,32 154.863186,32.8709107 156.517864,34.6124985 C158.17278,36.3543198 159,38.8047341 159,41.9639748 C159,42.1561871 158.994061,42.4443887 158.981707,42.8288132 L144.419827,42.8288132 C144.542413,44.9308865 145.149168,46.5405181 146.240091,47.657638 C147.331015,48.7747578 148.691581,49.3333178 150.321789,49.3333178 C151.535299,49.3333178 152.571106,49.0209904 153.428973,48.3963823 C154.287077,47.7717509 154.967479,46.7747462 155.469941,45.4053682 Z M144.603706,40.1621309 L155.506764,40.1621309 C155.359708,38.5524993 154.942772,37.3452756 154.256431,36.5404597 C153.202331,35.2911969 151.835588,34.6666822 150.156203,34.6666822 C148.636464,34.6666822 147.358573,35.1650795 146.322766,36.1621076 C145.286959,37.1591356 144.713939,38.4924767 144.603706,40.1621309 Z" id="Fill-30" fill="#FFFFFF"></path>
                <path d="M163,52 L163,32.4418563 L165.908915,32.4418563 L165.908915,35.185853 C166.511242,34.2283783 167.312244,33.4578154 168.311921,32.8746415 C169.311831,32.2914676 170.450183,32 171.726977,32 C173.148283,32 174.313717,32.3007774 175.223044,32.9023321 C176.132605,33.5038868 176.773921,34.3448699 177.147457,35.4252813 C178.665182,33.1417604 180.640489,32 183.073612,32 C184.97678,32 186.440342,32.5371024 187.464299,33.6113073 C188.488022,34.6857509 189,36.3400264 189,38.5746113 L189,52 L185.765875,52 L185.765875,39.67961 C185.765875,38.3535638 185.660351,37.3989537 185.44977,36.8157798 C185.238956,36.2326059 184.856548,35.763059 184.302313,35.4069005 C183.748312,35.0509806 183.097892,34.8729013 182.351052,34.8729013 C181.001886,34.8729013 179.881743,35.3302738 178.990392,36.2447803 C178.099041,37.1595254 177.653365,38.6235473 177.653365,40.6370847 L177.653365,52 L174.401031,52 L174.401031,39.2926576 C174.401031,37.8195646 174.136053,36.7145659 173.605865,35.9779 C173.07591,35.2412342 172.208606,34.8729013 171.004184,34.8729013 C170.088787,34.8729013 169.242493,35.1182974 168.465538,35.6095671 C167.688582,36.1005981 167.125476,36.8188831 166.776219,37.7641834 C166.426963,38.7094837 166.252335,40.0722916 166.252335,41.8526072 L166.252335,52 L163,52 Z" id="Fill-31" fill="#FFFFFF"></path>
                <path d="M206.877343,49.207177 C205.650249,50.2282141 204.46929,50.9489283 203.334227,51.3693663 C202.199403,51.789781 200.981583,52 199.681006,52 C197.533828,52 195.883434,51.4864687 194.73006,50.4594527 C193.576687,49.4324133 193,48.1200918 193,46.522488 C193,45.5855526 193.217833,44.7297059 193.653499,43.9549247 C194.088927,43.1801435 194.659669,42.558595 195.36501,42.0900922 C196.07059,41.6215894 196.865109,41.267293 197.74857,41.0269693 C198.39874,40.8588127 199.380415,40.6967285 200.693359,40.5404831 C203.367996,40.2282258 205.337292,39.8557124 206.601247,39.42341 C206.613375,38.9789629 206.619558,38.6966001 206.619558,38.576555 C206.619558,37.255125 206.306602,36.3241918 205.680926,35.7837554 C204.834326,35.0508732 203.576555,34.6846656 201.907849,34.6846656 C200.349725,34.6846656 199.199442,34.9518477 198.457003,35.4864453 C197.714801,36.0210429 197.1657,36.9669234 196.809938,38.3243202 L193.570504,37.8917843 C193.865149,36.5343874 194.349804,35.4383338 195.024468,34.6036235 C195.69937,33.7686797 196.674862,33.1259481 197.950945,32.6756623 C199.227028,32.2251429 200.705487,32 202.386559,32 C204.055264,32 205.411013,32.1922123 206.454043,32.5764032 C207.496836,32.9608277 208.26377,33.4442777 208.754608,34.0269868 C209.245207,34.6094623 209.588841,35.3453807 209.785272,36.2342747 C209.895615,36.7866222 209.950787,37.7836503 209.950787,39.2251254 L209.950787,43.549504 C209.950787,46.5645271 210.021416,48.4714455 210.162437,49.2702591 C210.303695,50.0690493 210.582645,50.8348154 211,51.5675575 L207.539879,51.5675575 C207.196245,50.8948847 206.975321,50.108099 206.877343,49.207177 Z M206.601247,41.9639748 C205.398647,42.4443887 203.595104,42.8528689 201.190141,43.1891586 C199.828209,43.3813475 198.865083,43.5975687 198.300525,43.837799 C197.736204,44.0780527 197.300538,44.4294064 196.994002,44.8918602 C196.687228,45.354314 196.533842,45.8678453 196.533842,46.4324075 C196.533842,47.2972692 196.868201,48.0179834 197.53692,48.5945734 C198.205639,49.1711401 199.183985,49.4594352 200.472434,49.4594352 C201.748517,49.4594352 202.883341,49.1861574 203.877145,48.6396254 C204.871187,48.09307 205.60126,47.3453106 206.067366,46.3963706 C206.423366,45.6636286 206.601247,44.5825456 206.601247,43.1532151 L206.601247,41.9639748 Z" id="Fill-32" fill="#FFFFFF"></path>
                <path d="M214,45.8558175 L217.229018,45.3513245 C217.410439,46.6366009 217.915325,47.6216011 218.743675,48.3062784 C219.572259,48.9909791 220.730168,49.3333178 222.217635,49.3333178 C223.717291,49.3333178 224.829961,49.0300054 225.555647,48.4234041 C226.281098,47.8168028 226.64394,47.1050803 226.64394,46.28826 C226.64394,45.5555179 226.323523,44.9789512 225.682454,44.5585132 C225.234995,44.2702415 224.122325,43.9038705 222.344677,43.4594235 C219.950103,42.8587076 218.290356,42.3392908 217.365201,41.9009161 C216.440046,41.4623078 215.738504,40.8557766 215.260808,40.0810888 C214.783112,39.3061675 214.544264,38.4504376 214.544264,37.5134321 C214.544264,36.6605048 214.740686,35.8708698 215.133766,35.1440599 C215.526845,34.4172501 216.061968,33.813755 216.739368,33.3333411 C217.247301,32.9608277 217.939468,32.6455342 218.816337,32.3872271 C219.693207,32.1291536 220.633363,32 221.637275,32 C223.148884,32 224.47626,32.2160344 225.618933,32.6485704 C226.761841,33.0811063 227.605426,33.666618 228.14969,34.405339 C228.693954,35.1440599 229.068751,36.1319795 229.274315,37.3693313 L226.081628,37.8016337 C225.936538,36.8167503 225.516268,36.0479013 224.82082,35.4953202 C224.125372,34.9429728 223.14279,34.6666822 221.873075,34.6666822 C220.37342,34.6666822 219.303175,34.9128447 218.662106,35.4054032 C218.021271,35.8977281 217.70062,36.4743649 217.70062,37.1350799 C217.70062,37.5554712 217.833756,37.9338234 218.099793,38.2701365 C218.365831,38.6185941 218.783053,38.9067957 219.35146,39.1349748 C219.677971,39.2552534 220.639457,39.5315439 222.235918,39.9638463 C224.545641,40.5764499 226.157103,41.0781169 227.070304,41.4683802 C227.98327,41.858877 228.699814,42.4264052 229.219935,43.1711285 C229.739822,43.915875 230,44.840806 230,45.9459213 C230,47.0270043 229.682396,48.0450286 229.047655,48.9999708 C228.412681,49.9549364 227.496667,50.6936807 226.29938,51.2162037 C225.102093,51.7387268 223.747528,52 222.235918,52 C219.732351,52 217.824614,51.4834792 216.512474,50.4504376 C215.200334,49.417396 214.362843,47.8858638 214,45.8558175 Z" id="Fill-33" fill="#FFFFFF"></path>
                <path d="M48.999883,25.7010925 C46.1296926,25.7010925 43.8030617,23.3726542 43.8030617,20.5002343 C43.8030617,17.6280486 46.1296926,15.2993761 48.999883,15.2993761 C51.8700733,15.2993761 54.1967042,17.6280486 54.1967042,20.5002343 C54.1967042,23.3726542 51.8700733,25.7010925 48.999883,25.7010925 M56.0518758,24.1541886 C56.090969,24.0792212 56.1272531,24.002614 56.1640054,23.9260068 C56.17056,23.9124189 56.1775827,23.8990654 56.1839032,23.8854775 C56.1864782,23.8800893 56.1890532,23.8744667 56.1916282,23.8690784 C56.2433623,23.7587359 56.2925214,23.6469877 56.3393396,23.5343025 C56.3395737,23.5335997 56.3400419,23.5328968 56.340276,23.5319598 C56.342851,23.5261029 56.345426,23.5202461 56.348001,23.5146236 C56.3482351,23.5136865 56.3487033,23.5125151 56.3491714,23.511578 C56.3929465,23.4052181 56.4339124,23.2974526 56.4730056,23.18875 C56.4737079,23.1871101 56.4744102,23.1854701 56.4751124,23.183596 C56.4751124,23.183596 56.4753465,23.1833617 56.4753465,23.1831274 L56.4753465,23.1826589 C56.4755806,23.1824246 56.4758147,23.1819561 56.4758147,23.1812532 C56.7192694,22.5046731 56.8702581,21.7885009 56.9205877,21.0496042 L58.5,20.8610145 L58.1483952,17.9126902 L56.5701534,18.1012799 C56.5500216,18.0366206 56.5298897,17.9721955 56.5081193,17.9084733 C56.5081193,17.9084733 56.5078852,17.908239 56.5078852,17.9080047 C56.5050761,17.8998052 56.5017988,17.8913714 56.4989897,17.8829375 C56.3657919,17.5003699 56.2047373,17.1325615 56.0181667,16.7809179 C56.0181667,16.7809179 56.0181667,16.7806836 56.0179326,16.7804493 C56.016294,16.7771695 56.0144212,16.7738897 56.0125485,16.7703756 C56.0104417,16.7666272 56.0083349,16.7628788 56.0064621,16.7588962 C55.7225097,16.2275653 55.3819072,15.7332495 54.9916774,15.285554 L55.9732212,14.0378166 L53.6398016,12.2018199 L52.6580238,13.4495573 C52.2345531,13.2293408 51.789546,13.0477793 51.3283866,12.9062785 C51.3281525,12.9062785 51.3276843,12.9060442 51.3274503,12.9060442 C51.3262798,12.9055757 51.3251093,12.9051071 51.3237048,12.9048729 C50.9945728,12.8039013 50.6570135,12.7240142 50.3128996,12.6666173 C50.3098565,12.6661488 50.3070474,12.6656803 50.3040042,12.6652117 C50.0628904,12.625151 49.8187334,12.5958669 49.5715333,12.5780622 C49.5642765,12.5775936 49.5570197,12.5768908 49.5497628,12.5764223 L49.3615536,11 L46.413411,11.3518779 L46.6013861,12.9283002 C46.5976406,12.9294715 46.5938952,12.9311114 46.5901497,12.9325171 C46.3944496,12.9943651 46.202729,13.0637099 46.0145198,13.1398486 C46.0091357,13.1421913 46.0039857,13.1442998 45.9986016,13.1466425 C45.6083718,13.3057138 45.2349966,13.4945377 44.8805828,13.7096003 C44.8770714,13.711943 44.87356,13.7140514 44.8700487,13.7161599 C44.485203,13.9506671 44.1223619,14.2153954 43.7857389,14.5087051 L42.5380336,13.5273359 L40.7020575,15.8609282 L41.9497628,16.8425316 C41.4570012,17.7899312 41.1566624,18.844862 41.0805828,19.9503958 L39.5,20.1389855 L39.8518388,23.0873098 L41.4298466,22.8989544 C41.5061603,23.1414268 41.5932422,23.3789796 41.6913263,23.6102069 C41.6927309,23.6134867 41.6941354,23.6167665 41.6955399,23.6202806 C41.8083718,23.8847747 41.9340787,24.1420064 42.073597,24.3898671 C42.0738311,24.3905699 42.0742993,24.3912727 42.0745334,24.3917413 C42.0745334,24.3919755 42.0747674,24.3919755 42.0747674,24.3919755 C42.2192016,24.6487386 42.3772131,24.8961308 42.5478655,25.1334492 C42.5480996,25.1336835 42.5483336,25.1341521 42.5485677,25.1343863 C42.5574632,25.1463342 42.5665927,25.1580479 42.5752541,25.1699958 C42.5764246,25.1716357 42.577595,25.1732756 42.5789996,25.1749155 C42.6410337,25.2599566 42.7037701,25.3442948 42.7690815,25.4267589 C42.7690815,25.4269932 42.7693156,25.4269932 42.7695497,25.4272274 C42.7814883,25.4422209 42.7938952,25.4567458 42.8060679,25.4717393 C42.8107497,25.4773618 42.8156656,25.4829844 42.8203474,25.4888412 C42.8812111,25.5642771 42.942543,25.6392444 43.0059816,25.7121033 C43.0066839,25.7130404 43.0073862,25.7137432 43.0083226,25.7146803 L42.0267788,26.9621834 L44.3601984,28.7981801 L45.3417421,27.5506769 C45.3424444,27.5511455 45.3433808,27.551614 45.3443171,27.5520826 C45.3452535,27.5525511 45.3461899,27.5530197 45.3471262,27.5534882 C45.4297604,27.5963601 45.513565,27.6364208 45.5976036,27.6762472 C45.6057968,27.6802298 45.61399,27.6844467 45.6224173,27.6884294 C45.6404423,27.6970975 45.6587014,27.7064684 45.6769605,27.7149022 C45.6778969,27.7153708 45.6785991,27.715605 45.6795355,27.7160736 C45.7750447,27.7601169 45.8719584,27.8013489 45.9691061,27.8416439 L45.9740221,27.8437523 C45.9868971,27.8489063 46.0000062,27.8549974 46.0131153,27.8603857 C46.0138175,27.86062 46.0145198,27.8608542 46.0152221,27.8610885 C46.1133062,27.9011492 46.2127949,27.9381643 46.3127518,27.9742423 C46.3150927,27.9751794 46.3176677,27.9761165 46.3200086,27.9770536 C46.3307768,27.980802 46.3413109,27.9852531 46.351845,27.9890015 C46.3534836,27.9894701 46.3548882,27.9899386 46.3562927,27.9904071 C46.4562496,28.0257823 46.5571429,28.0585806 46.6587384,28.0897388 C46.6624838,28.0909102 46.6664634,28.0925501 46.6702088,28.0934872 C46.6772316,28.0958299 46.6842543,28.0979384 46.691277,28.1002811 C46.6933838,28.1009839 46.6959588,28.1016868 46.6980657,28.1023896 C46.7469907,28.1171488 46.7959157,28.1321422 46.8450748,28.1461986 C46.8460112,28.1464329 46.8469476,28.1466672 46.8476498,28.1469014 C46.8490544,28.1471357 46.8499908,28.14737 46.8513953,28.1478385 C46.8663771,28.1520554 46.881359,28.1555695 46.8963408,28.1595522 C46.9991068,28.1878992 47.1023409,28.2150748 47.2065114,28.239205 C47.2076819,28.2394392 47.2090864,28.2399078 47.2100228,28.240142 C47.2184501,28.2420162 47.2271114,28.2436561 47.2353046,28.245296 C47.2374114,28.2457646 47.2395183,28.2459989 47.2416251,28.2467017 C47.3876979,28.2797342 47.5354094,28.3080812 47.6840572,28.3329141 C47.6906117,28.3340855 47.6971663,28.3350226 47.7034867,28.3361939 C47.8530709,28.3607926 48.0038255,28.3809401 48.1555165,28.3971049 C48.156687,28.3973392 48.1580915,28.3975734 48.1594961,28.3975734 C48.187587,28.400619 48.215912,28.4041331 48.244003,28.4069443 C48.2456416,28.4069443 48.2472802,28.4071786 48.2489189,28.4071786 C48.3060371,28.4125669 48.3633894,28.4172523 48.4207417,28.4214693 C48.4305735,28.4221721 48.4401713,28.4233434 48.4500031,28.4240463 L48.6382123,30 L51.586589,29.6481221 L51.3986139,28.0719341 C51.4032958,28.0702942 51.4077435,28.0681857 51.4126594,28.0667801 C51.6048481,28.0056349 51.7937596,27.9376957 51.9789256,27.8629627 C51.9868847,27.8596829 51.9946097,27.8561688 52.0025688,27.852889 C52.3867123,27.6961604 52.7544693,27.5108505 53.1039672,27.2995364 C53.1107559,27.2953195 53.1175445,27.2913368 53.1243331,27.2873542 C53.3057537,27.1767774 53.4824925,27.0601095 53.653613,26.9361791 C53.6552516,26.9350078 53.6571244,26.9338364 53.658763,26.9324308 C53.6648494,26.9279796 53.6707017,26.9235284 53.676788,26.9190772 C53.6781926,26.9179058 53.6798312,26.9165002 53.6814698,26.9153288 C53.864295,26.781559 54.0419701,26.6414638 54.2121543,26.4931691 C54.2128565,26.4924663 54.2133247,26.4919977 54.214027,26.4915292 L55.4614982,27.4728983 L57.2974743,25.1393061 L56.0502372,24.1579369 C56.0507054,24.1567656 56.0514076,24.1553599 56.0518758,24.1541886" id="Fill-34" fill="#4B728D"></path>
                <path d="M26.9994975,31.2468935 C22.4483592,31.2468935 18.7590295,27.5547621 18.7590295,23.0001197 C18.7590295,18.4457168 22.4483592,14.7533459 26.9994975,14.7533459 C31.5506837,14.7533459 35.2400134,18.4457168 35.2400134,23.0001197 C35.2400134,27.5547621 31.5506837,31.2468935 26.9994975,31.2468935 L26.9994975,31.2468935 Z M38.7338581,24.0953794 C38.7436683,23.9967246 38.7534784,23.8978304 38.760178,23.7991756 C38.760178,23.7977389 38.7604173,23.7963022 38.7604173,23.7948654 C38.7637671,23.7467353 38.7656813,23.6983657 38.7683133,23.6502356 C38.7685525,23.6478411 38.7685525,23.6454465 38.7685525,23.643052 C38.7757307,23.5163812 38.7826696,23.3899498 38.7855408,23.2637579 C38.7855408,23.2628001 38.7857801,23.2618423 38.7857801,23.260645 L38.7857801,23.2388547 C38.7862586,23.2232903 38.7857801,23.2079652 38.7860194,23.1926402 C38.7910441,22.8892528 38.784823,22.5870627 38.7666384,22.2870276 C38.7663991,22.2827175 38.7663991,22.2786467 38.7661598,22.2743366 C38.765442,22.2602088 38.7652027,22.2463205 38.7642456,22.2321928 C38.7642456,22.2314744 38.7642456,22.2307561 38.7640064,22.2300377 C38.7585031,22.144074 38.7498893,22.0585891 38.7424719,21.9731043 C38.7424719,21.9721464 38.7422326,21.9709492 38.7422326,21.9697519 C38.7417541,21.9654417 38.7412756,21.9611316 38.7410363,21.9568214 C38.7331403,21.8679842 38.7254836,21.7789076 38.7156735,21.6900704 C38.7151949,21.6859997 38.7149557,21.6821684 38.7144771,21.6783372 C38.7144771,21.6776188 38.7144771,21.6771399 38.7142379,21.676661 C38.7061026,21.6036277 38.6960532,21.5310733 38.6864823,21.4582795 L38.6857645,21.4530116 C38.6838504,21.437926 38.6812184,21.4228404 38.6790649,21.4077549 C38.6785864,21.4027263 38.6776293,21.3974584 38.6769115,21.3924299 C38.655377,21.2375035 38.6321677,21.0830561 38.6046514,20.929806 C38.6044122,20.9290876 38.6044122,20.9283692 38.6041729,20.9276509 C38.6008231,20.9077762 38.5962769,20.8876622 38.5926879,20.8675481 C38.59197,20.8646746 38.5912522,20.8615617 38.5907737,20.8584489 C38.5625396,20.7059171 38.5326307,20.5541036 38.4984148,20.403248 C38.4981756,20.4020507 38.4979363,20.4008535 38.497697,20.3994168 C38.4914759,20.3728374 38.4842978,20.3464976 38.4780767,20.3199182 C38.4761626,20.3120163 38.4742484,20.3043538 38.4723342,20.2964518 C38.4385969,20.1542165 38.4041418,20.0124601 38.3651405,19.871901 C38.3651405,19.8714221 38.3651405,19.8711826 38.3649012,19.8707037 C38.3562875,19.8390959 38.3459988,19.8077275 38.3369065,19.7761197 C38.3359494,19.7727673 38.3349923,19.769415 38.3340352,19.7663021 C38.2935983,19.6250246 38.2524436,19.484226 38.2067427,19.3448642 C38.2067427,19.3446247 38.2065034,19.3441458 38.2065034,19.3439063 C38.2057856,19.3419907 38.205307,19.3400751 38.2045892,19.3383989 C38.2041107,19.3369622 38.2036321,19.3355255 38.2031536,19.3343282 L40.2661538,18.1959669 L38.1373539,14.3376549 L36.0743537,15.4762556 C35.298635,14.5387957 34.3721751,13.7177101 33.3203369,13.0501142 C33.3169871,13.0481985 33.3136373,13.0460435 33.3102875,13.0438884 C33.0037805,12.8496917 32.6869848,12.6684255 32.3594219,12.501766 C32.3496118,12.496498 32.3398016,12.49123 32.3299915,12.4862015 L32.9839209,10.2226489 L28.7502482,9 L28.0963188,11.2635526 C28.0853123,11.2625948 28.0738273,11.2621159 28.0625815,11.2611581 C27.9429457,11.2501432 27.8237884,11.2417624 27.7043918,11.2343393 C27.656059,11.2314659 27.6077261,11.2288319 27.5593932,11.2266768 C27.4342541,11.220451 27.3091151,11.2159014 27.1844545,11.2137463 C27.1576561,11.2135069 27.1306184,11.2137463 27.10382,11.2135069 C26.5001376,11.20776 25.902437,11.248946 25.3143072,11.3344308 C25.2980368,11.3368254 25.2820056,11.3389804 25.2657351,11.341375 C25.1209757,11.3629258 24.9769342,11.3871106 24.8333712,11.4141688 C24.8192542,11.4168028 24.8053764,11.4196762 24.7912594,11.4223102 C24.4519722,11.4872021 24.1165133,11.5664611 23.7858878,11.6603269 L23.7856485,11.6605663 C23.7854092,11.6605663 23.7849307,11.6605663 23.7846914,11.6608058 C23.6339503,11.7036679 23.4834484,11.7482062 23.3346214,11.7970547 L22.1964061,9.73440346 L18.3381507,11.8633833 L19.4761267,13.9260346 C18.2541663,14.9372461 17.2274516,16.2020388 16.4847524,17.6701273 L14.2229174,17.0168986 L13,21.250434 L15.265424,21.90486 C15.2300118,22.279844 15.2115879,22.6536307 15.2123057,23.0255018 L15.2123057,23.042503 C15.2137414,23.5573277 15.2491536,24.0676028 15.3171067,24.5711732 C15.3175853,24.574765 15.3180638,24.5783568 15.3185424,24.5819486 L15.3190209,24.5838643 C15.3434266,24.7639332 15.3716607,24.9430443 15.4044409,25.1211976 C15.4044409,25.1214371 15.4046802,25.1216765 15.4046802,25.1216765 L15.4046802,25.121916 C15.5006281,25.6446427 15.6298348,26.158749 15.7942144,26.6604038 L15.7942144,26.6606433 C15.7949322,26.6625589 15.79565,26.6642351 15.7961286,26.6661507 L13.7336069,27.8042725 L15.8626461,31.6623451 L17.9249285,30.5242233 C17.9261249,30.52566 17.927082,30.5270967 17.9282783,30.5285334 C17.9287569,30.5292518 17.9294747,30.5299702 17.9301925,30.5306885 C18.0254226,30.6453867 18.1242418,30.7574508 18.2237788,30.8687967 C18.2273679,30.8728674 18.2307177,30.8769381 18.2343068,30.8807693 C18.2524914,30.9011229 18.2701975,30.9224342 18.2886214,30.9425483 C18.2888607,30.9427878 18.2891,30.9430272 18.2893393,30.9435061 C18.3967722,31.0615566 18.5077943,31.1767337 18.620252,31.2907135 C18.6348475,31.3053201 18.6489646,31.3208846 18.6635601,31.3354913 L18.6654743,31.3374069 C18.7791283,31.4511472 18.8958929,31.5617747 19.0143324,31.6709654 C19.0155287,31.6721627 19.0167251,31.67336 19.0179214,31.6745572 C19.0291672,31.6848537 19.0401737,31.6958686 19.0516588,31.7061651 C19.0523766,31.7068834 19.0533337,31.7076018 19.0540515,31.7083201 C19.1717731,31.8158347 19.292366,31.9204758 19.4143946,32.0232013 C19.41918,32.027272 19.4239654,32.0313427 19.4287509,32.0354134 C19.4356898,32.0413998 19.4426286,32.0473861 19.4495675,32.0533724 C19.4514817,32.0548092 19.4533959,32.0564853 19.45531,32.0579221 C19.5158458,32.1084467 19.575903,32.1589714 19.6373958,32.2082988 C19.6383529,32.2090171 19.6393099,32.2097355 19.640267,32.2106933 C19.6417027,32.2116511 19.642899,32.2126089 19.6440954,32.2135667 C19.7161161,32.2707961 19.789094,32.3261098 19.8620719,32.3814236 C19.8630289,32.3821419 19.8637468,32.3828603 19.8647038,32.3835786 C19.9362461,32.4379345 20.0073097,32.4932483 20.0802876,32.5461675 C20.0807661,32.5466464 20.081484,32.5471253 20.0822018,32.5476042 C20.0915334,32.5543089 20.1011042,32.5607741 20.1104358,32.5672394 C20.1125893,32.5689155 20.114982,32.5701128 20.1168962,32.5715495 C20.299939,32.7030094 20.487528,32.828483 20.678706,32.9498858 C20.6854056,32.954196 20.6923445,32.9582667 20.6990441,32.9625769 C20.8930934,33.085177 21.0914496,33.2022697 21.2938734,33.3140944 C21.2948305,33.3145733 21.2955484,33.3150522 21.2962662,33.3155311 C21.3292857,33.3337296 21.3618266,33.3526464 21.3948461,33.3703659 L21.3977173,33.3718027 C21.4761985,33.4141859 21.5551581,33.4553719 21.6345963,33.496079 C21.6460813,33.5020653 21.6575664,33.5082911 21.6692907,33.5142774 L21.0156005,35.7773511 L25.2489861,37 L25.9029155,34.7366868 C25.913922,34.7378841 25.9254071,34.7381235 25.9366528,34.7393208 C26.0560494,34.7500962 26.1749674,34.7584771 26.2941247,34.7656607 C26.3426968,34.7687736 26.3915082,34.7714076 26.4403197,34.7738021 C26.5647409,34.7797884 26.6891622,34.784338 26.8133442,34.7862537 C26.841339,34.7867326 26.8693337,34.7864931 26.8975678,34.7867326 C27.4962255,34.79224 28.0891407,34.7517724 28.6727242,34.6674848 C28.6944979,34.6643719 28.7165109,34.6614985 28.7385239,34.6581461 C28.8784979,34.6370742 29.017754,34.6140867 29.1565315,34.5879863 C29.1763911,34.5843945 29.1964899,34.5800843 29.2163494,34.5762531 C29.3620659,34.548237 29.5070645,34.5185448 29.6513453,34.4850213 C29.6530202,34.4845424 29.6546951,34.4845424 29.65637,34.4840635 C29.6640267,34.4821479 29.6719227,34.4802323 29.6798186,34.4783166 C29.6891502,34.4761616 29.6984818,34.4735276 29.7080527,34.471133 C29.8784141,34.4306654 30.0478184,34.3868455 30.2157871,34.3391942 C30.2203333,34.3377575 30.2248795,34.3363208 30.2294256,34.3351235 C30.2375609,34.3329685 30.2456961,34.330095 30.2538313,34.3279399 C30.3902162,34.2884301 30.526601,34.2486809 30.661311,34.2046214 C30.6625073,34.2041425 30.6637037,34.2039031 30.6649,34.2034242 L31.802876,36.265836 L35.6611315,34.1366167 L34.5231555,32.0742049 C34.5243519,32.0734865 34.525309,32.0725287 34.526266,32.0715709 C34.6332205,31.9829732 34.7373036,31.8907836 34.8413868,31.7983546 C34.8497613,31.7909316 34.8581358,31.7839874 34.8662711,31.7765644 C34.8700994,31.773212 34.8739278,31.7698597 34.8777561,31.7662679 C35.0122268,31.6458228 35.1438262,31.521786 35.2730329,31.3948757 C35.2756649,31.3920023 35.2785361,31.3896077 35.2811681,31.3869737 C35.2873892,31.3812269 35.2936103,31.3752405 35.299592,31.3692542 C35.3005491,31.3682964 35.3015062,31.3670991 35.3027026,31.3661413 C36.1837008,30.4933338 36.9314247,29.4718257 37.5092658,28.3284359 L39.7768433,28.9833409 L41,24.7498054 L38.7338581,24.0953794 Z" id="Fill-35" fill="#4B728D"></path>
                <path d="M27.0003687,26.6321127 C24.9959878,26.6321127 23.3714747,25.0061099 23.3714747,23.0004313 C23.3714747,20.9947528 24.9959878,19.36875 27.0003687,19.36875 C29.0045206,19.36875 30.6292857,20.9947528 30.6292857,23.0004313 C30.6292857,25.0061099 29.0045206,26.6321127 27.0003687,26.6321127 M32.6900248,19.8600816 C30.9562089,16.7176684 27.0031179,15.5758898 23.8603705,17.3101094 C20.7178292,19.0443289 19.5760033,22.9974508 21.3098192,26.1400932 C23.0438641,29.2825064 26.9969323,30.4240557 30.1397026,28.6898362 C33.2822439,26.9558459 34.4240698,23.0024948 32.6900248,19.8600816" id="Fill-36" fill="#4B728D"></path>
                <path d="M29.6262333,21.5508029 C28.8259459,20.1005581 27.0015477,19.5734563 25.5509821,20.3738789 C24.1006547,21.1743016 23.5734793,22.9989032 24.3737667,24.4491481 C25.1740541,25.8996312 26.9986904,26.4264947 28.4490179,25.626072 C29.8993453,24.8258876 30.4265207,23.0010478 29.6262333,21.5508029" id="Fill-37" fill="#4B728D"></path>
                <path d="M18.0002397,56.2043109 C13.4731472,56.2043109 9.80315352,52.5312132 9.80315352,48.0008275 C9.80315352,43.4699621 13.4731472,39.7973681 18.0002397,39.7973681 C22.5273322,39.7973681 26.1973258,43.4699621 26.1973258,48.0008275 C26.1973258,52.5312132 22.5273322,56.2043109 18.0002397,56.2043109 L18.0002397,56.2043109 Z M29.6374655,46.0175995 C29.6209276,45.9180543 29.6048689,45.8187489 29.5854548,45.7201632 C29.5852151,45.7196835 29.5852151,45.7194436 29.5852151,45.7189639 C29.5761072,45.6726694 29.5655613,45.6263749 29.555974,45.5800803 C29.5550153,45.5748032 29.5538169,45.5695261 29.5526185,45.5642491 C29.526733,45.4409569 29.5008474,45.3179047 29.471127,45.1960518 C29.4699286,45.1907747 29.4684905,45.1852577 29.4670524,45.1802205 C29.4644159,45.168467 29.4610604,45.1571932 29.4579446,45.1456795 C29.3836435,44.8468041 29.2983171,44.5522462 29.2017257,44.2627256 C29.2000479,44.2576884 29.1986099,44.2526512 29.1969321,44.247614 C29.1928575,44.2344212 29.1887829,44.2209886 29.1844687,44.207556 C29.184229,44.2065965 29.1837496,44.2058769 29.18351,44.2053972 C29.155707,44.1233624 29.1252675,44.0427667 29.0955471,43.9616914 C29.0950677,43.9600123 29.0943487,43.9580934 29.0938693,43.9564143 C29.0924312,43.9525764 29.0907535,43.9484986 29.0893154,43.9446608 C29.0588759,43.8609468 29.0286761,43.7774728 28.9963192,43.6944785 C28.9948811,43.6908805 28.9936827,43.6872825 28.9922446,43.6839243 L28.9920049,43.6832047 C28.9644416,43.6129234 28.9352006,43.5436016 28.9061992,43.4740399 C28.9059595,43.4735601 28.9057198,43.4730804 28.9057198,43.4726007 C28.9002072,43.4596478 28.8944548,43.4469348 28.8891818,43.4342218 L28.8889422,43.4342218 C28.6130695,42.7767678 28.2815908,42.1487935 27.8961839,41.5577589 C27.8961839,41.5577589 27.8959443,41.557519 27.8959443,41.5572792 C27.8937871,41.5544008 27.8918697,41.5515223 27.8897126,41.5484041 L29.5907278,39.912025 L26.5304823,36.7308964 L24.8297067,38.3672755 C23.542141,37.4526591 22.0618719,36.7908634 20.4598449,36.4516902 C20.4502577,36.4497712 20.4409101,36.4471327 20.4315625,36.4452137 L20.4773416,34.085393 L16.0638578,34 L16.0180788,36.3598208 C16.0072931,36.3614998 15.9967472,36.3638985 15.9859615,36.3658174 C15.8661211,36.3864461 15.7472394,36.4097133 15.6285974,36.4337001 C15.5828183,36.4430549 15.5372789,36.4526496 15.4914999,36.4624842 C15.3671055,36.4895893 15.2434302,36.5178937 15.1207136,36.5485968 C15.0972248,36.5543536 15.0739758,36.5608301 15.0504871,36.5670666 C14.4623102,36.7186632 13.8918697,36.9141555 13.3422814,37.1504255 C13.3283799,37.1564222 13.3147181,37.162179 13.3010563,37.1684156 C13.1656366,37.2271832 13.031655,37.2881097 12.8988718,37.3516747 C12.8868877,37.3576714 12.8749037,37.3636681 12.8629197,37.3694249 C12.408245,37.5896237 11.9686703,37.835968 11.5487494,38.1103769 L9.91268768,36.4099531 L6.73140333,39.4699484 L8.36746503,41.1708519 C7.44733013,42.4661388 6.78149664,43.9559345 6.44378627,45.5690464 L4.08556607,45.5234715 L4,49.9368017 L6.36181541,49.9826164 C6.42485148,50.3548915 6.50418586,50.7223691 6.60125661,51.082171 C6.60245502,51.0872083 6.60365342,51.0922455 6.60509151,51.096803 C6.78557121,51.7629162 7.02237592,52.406242 7.31143107,53.0207837 C7.31167075,53.0207837 7.31167075,53.0210236 7.31167075,53.0210236 C7.31886117,53.0363751 7.32653096,53.0512469 7.33396107,53.0665985 C7.33515947,53.0697168 7.33683724,53.0725952 7.33851501,53.0757135 C7.40682406,53.2193944 7.47705056,53.361636 7.55111195,53.5019588 L7.55183099,53.503398 C7.56213727,53.5230672 7.57364195,53.5427363 7.58418791,53.5624055 C7.58586568,53.5657636 7.58778312,53.5688819 7.58946089,53.5720002 C7.75004708,53.8711155 7.92141891,54.1637544 8.10621287,54.4470384 C8.10645255,54.4472783 8.10645255,54.4475182 8.10669223,54.447758 C8.10741128,54.4489574 8.10837,54.4501567 8.10908904,54.4511162 C8.10932872,54.4513561 8.1095684,54.4515959 8.1095684,54.4518358 L6.40903255,56.087975 L9.46927805,59.2688637 L11.1695742,57.6329644 C11.1707726,57.6339238 11.171971,57.6348833 11.1731694,57.6356029 C11.1741282,57.6363225 11.1750869,57.6370421 11.1760456,57.6377617 C11.2860591,57.7157188 11.3989488,57.7900779 11.5120782,57.8646768 C11.5266987,57.8742715 11.5413193,57.8848257 11.5561795,57.8944204 C11.5806269,57.9102517 11.604595,57.9275222 11.6290425,57.9431136 C11.6309599,57.9443129 11.6326377,57.9455123 11.6345551,57.9467116 C11.7546353,58.0237092 11.8775915,58.0971088 12.0005478,58.1697888 C12.0134906,58.1774646 12.025954,58.1856201 12.0388968,58.193056 C12.0573522,58.2038501 12.075568,58.2153637 12.0940234,58.2261578 C12.0954615,58.2268774 12.0966599,58.2278368 12.098098,58.2283166 C12.2313605,58.3055541 12.3667802,58.3784739 12.5031587,58.4504343 C12.5103491,58.4542722 12.5175395,58.4583499 12.5244903,58.4621878 C12.5386314,58.4693839 12.5525329,58.4775394 12.5664344,58.4847354 C12.5685915,58.4859347 12.5709883,58.4871341 12.5733852,58.4880936 C12.7140778,58.5610134 12.8569276,58.6303352 13.0009758,58.697978 C13.0076869,58.7008564 13.0146377,58.7044544 13.0213487,58.7078126 C13.0282995,58.7109309 13.0352502,58.714289 13.042201,58.7176472 C13.0443581,58.7183668 13.0465152,58.7193262 13.0486723,58.7205256 C13.1193782,58.7531476 13.1898444,58.7864893 13.261509,58.817912 C13.2631867,58.8183917 13.2646248,58.8191113 13.2663026,58.8198309 C13.267501,58.8203106 13.2689391,58.8210302 13.2703772,58.82151 C13.3509099,58.8567706 13.4321618,58.8896325 13.5134136,58.9229741 C13.5210834,58.9263323 13.5287531,58.9289708 13.5364229,58.932329 C13.6164763,58.964951 13.6958107,58.9985325 13.7765832,59.0294755 C13.7780213,59.0299552 13.7794593,59.0306748 13.7808974,59.0311546 C13.7916831,59.0354722 13.8029481,59.0390702 13.8139734,59.043148 C13.8173289,59.0443473 13.8209241,59.0455466 13.8242797,59.046746 C14.0330417,59.1256625 14.2451593,59.1976229 14.4591943,59.2650258 C14.4690212,59.2676643 14.4786085,59.2707826 14.4884354,59.2739009 C14.7046276,59.3408241 14.9232165,59.4019904 15.144442,59.4569201 C15.1458801,59.4573999 15.1473181,59.4576398 15.1487562,59.4578796 C15.1883036,59.4677142 15.2276112,59.4785083 15.2673983,59.4878631 C15.2700348,59.4885827 15.2729109,59.4890625 15.2757871,59.4897821 C15.3582373,59.5092114 15.4409272,59.5276812 15.5238568,59.5454314 C15.5384773,59.5485497 15.5533376,59.5523876 15.5679581,59.5555059 L15.522179,61.914607 L19.9354231,62 L19.9812022,59.640659 C19.9936656,59.6385002 20.006129,59.6358616 20.0185924,59.6337028 C20.1331599,59.6137938 20.2470083,59.5917259 20.3603773,59.5686986 C20.4121484,59.5581444 20.4639195,59.5473504 20.5156905,59.5360766 C20.6343326,59.5101708 20.7522556,59.4833056 20.8694595,59.4540417 C20.9010974,59.446366 20.9322559,59.4374908 20.9638938,59.4290955 C21.3922035,59.3182765 21.8114054,59.1844302 22.2198216,59.0277964 C22.225574,59.0258775 22.231566,59.0237187 22.2373183,59.0215598 C22.3705809,58.9702281 22.5021657,58.916018 22.6330314,58.8601287 C22.6553218,58.850534 22.6776121,58.8409393 22.6999024,58.8313446 C22.8290904,58.7754553 22.9568403,58.7174073 23.0833918,58.6567207 C23.1011282,58.6483253 23.1183852,58.6394502 23.1358819,58.6310548 C23.2708223,58.5658108 23.4048039,58.4988876 23.5368681,58.4286063 L23.5407029,58.4266874 C23.5486124,58.4223697 23.5565219,58.4180521 23.5644314,58.4137345 C23.5732995,58.4089371 23.5819281,58.40366 23.5907963,58.3988627 C23.7300508,58.3240239 23.868107,58.2472661 24.0040061,58.1669104 C24.0052045,58.1661908 24.0064029,58.1654712 24.0076013,58.1647516 C24.0107172,58.1630725 24.0135933,58.1609137 24.0167092,58.1592346 C24.0277345,58.1527582 24.0385201,58.1455621 24.0497851,58.138606 C24.052182,58.1374066 24.0548184,58.1357276 24.0572153,58.1342884 C24.1883207,58.0556117 24.3187071,57.9762154 24.4466967,57.8925015 C24.4478951,57.891542 24.4493332,57.8908224 24.4507713,57.8898629 L26.0865933,59.5902867 L29.2678776,56.5298117 L27.6320556,54.8296278 C27.633254,54.8279487 27.6342127,54.8265095 27.6351715,54.8248304 C27.7288867,54.6929031 27.8185273,54.5583372 27.9069696,54.4220922 C27.9096061,54.4184942 27.9122426,54.4144164 27.914879,54.4103387 C27.9179949,54.4057812 27.9213504,54.4012237 27.9244663,54.3964263 C27.9251853,54.3954668 27.9256647,54.3942675 27.9263837,54.393308 C28.0165037,54.2537049 28.1027889,54.1114632 28.1871565,53.9680222 C28.1881153,53.9663431 28.1893137,53.9644242 28.1902724,53.9627451 C28.1948263,53.9553092 28.1993803,53.9478733 28.2039342,53.9404374 C28.2044136,53.9394779 28.2051326,53.9382786 28.205612,53.9373191 C28.2899796,53.7926787 28.3705124,53.6458795 28.4488881,53.4974013 C28.4515245,53.4916445 28.4548801,53.4866072 28.4577562,53.4808504 C28.4579959,53.4803707 28.4584753,53.4798909 28.458715,53.4791713 C28.4591943,53.4786916 28.459434,53.477972 28.4596737,53.4772524 L28.4613515,53.4738942 C28.5248669,53.3527609 28.5859855,53.2301884 28.6454264,53.1064166 C28.6511787,53.0939434 28.6569311,53.0817102 28.6629231,53.0694769 C29.0581569,52.2395338 29.3572786,51.3551408 29.5507011,50.4311695 L31.9141942,50.4767444 L32,46.0634142 L29.6374655,46.0175995 Z" id="Fill-38" fill="#4B728D"></path>
                <path d="M9.49988295,14.8409534 C6.55220846,14.8409534 4.16260704,12.4494957 4.16260704,9.49953145 C4.16260704,6.54956721 6.55220846,4.15810954 9.49988295,4.15810954 C12.4475574,4.15810954 14.8371589,6.54956721 14.8371589,9.49953145 C14.8371589,12.4494957 12.4475574,14.8409534 9.49988295,14.8409534 M16.5511735,13.1555942 C16.5991622,13.0632907 16.6443418,12.9693472 16.688585,12.8751695 L16.6902236,12.8716554 C16.6946713,12.8625188 16.6995873,12.8533822 16.7038009,12.8440112 C16.7042691,12.8430742 16.7047373,12.8419028 16.7052054,12.8409657 C16.7517896,12.7409312 16.7955646,12.639491 16.8379351,12.5371138 C16.8391055,12.5343025 16.8405101,12.5317255 16.8416805,12.5289142 C16.8437873,12.5239945 16.8458942,12.5190747 16.848001,12.514155 C16.8482351,12.5132179 16.8484692,12.5127494 16.8489373,12.5118123 C17.1661307,11.7396488 17.3618308,10.9100885 17.4205877,10.0496042 L19,9.8612488 L18.6481612,6.91292447 L17.0699193,7.10127987 C17.0497875,7.0370891 17.0298897,6.97289833 17.0081193,6.90941037 C17.0078852,6.90894183 17.0078852,6.90823901 17.0076511,6.90777046 C16.9968829,6.87684644 16.9854124,6.84615669 16.9744102,6.81546694 C16.973942,6.81429558 16.9737079,6.81335849 16.9732397,6.8124214 C16.9444465,6.73183152 16.9154192,6.65124165 16.884051,6.57205741 C16.8838169,6.57135459 16.8835828,6.57065177 16.8833487,6.56994895 C16.8805396,6.56338931 16.8777305,6.55636113 16.8746874,6.54956721 C16.7953305,6.35066953 16.7082486,6.15598875 16.6139099,5.96575917 C16.6134418,5.96482208 16.6129736,5.96388498 16.6125054,5.96294789 C16.6082918,5.9542798 16.6043122,5.94537743 16.6000986,5.93670933 C16.5998645,5.93647506 16.5996304,5.93600651 16.5993963,5.93553796 C16.5738804,5.88493502 16.5467258,5.83503489 16.5202735,5.7849005 L16.5176985,5.78044931 C16.5158258,5.77670094 16.513719,5.77295258 16.5118462,5.76920421 C16.4842235,5.7174299 16.4570689,5.66542132 16.4282757,5.61434983 C16.4266371,5.61153856 16.4252326,5.60872728 16.423828,5.60591601 C16.4233598,5.60544746 16.4231257,5.60497892 16.4228916,5.60451037 C16.3990144,5.5618727 16.3739666,5.52017213 16.3493871,5.47823728 C16.3484507,5.47683164 16.3477484,5.47542601 16.3470461,5.47425464 C16.341428,5.46464945 16.3353416,5.45504427 16.3297234,5.44543908 C16.3259779,5.43911371 16.3219984,5.43302261 16.3182529,5.42669725 C16.141046,5.13034204 15.9465164,4.84616902 15.7337276,4.57745802 L15.7330253,4.5767552 C15.7189799,4.55871618 15.7037639,4.54137999 15.6894844,4.52357525 C15.6850367,4.51818697 15.6805889,4.51303297 15.6761412,4.50764469 C15.6155116,4.43267737 15.5546479,4.35817859 15.4914434,4.28555399 L16.4732212,3.03781658 L14.1395675,1.2020542 L13.1577897,2.44955735 C12.2160414,1.95992701 11.1689521,1.65630934 10.070831,1.57829647 C10.0638083,1.57782792 10.0565515,1.57689083 10.0495287,1.57642228 L9.86155363,0 L6.91317686,0.352112155 L7.10115197,1.92853444 C7.09764061,1.9297058 7.09436333,1.93111144 7.09061788,1.9322828 C6.89538594,1.99436512 6.70366537,2.06324135 6.51592435,2.13938004 C6.51007208,2.14172277 6.5042198,2.14429977 6.49836752,2.1466425 C6.10977638,2.30524525 5.7378057,2.49313211 5.38456231,2.7074918 C5.38011458,2.7100688 5.37566685,2.7126458 5.37121912,2.71545708 C4.98590525,2.95019852 4.62259595,3.21516116 4.28573893,3.50893936 L3.03803364,2.52733595 L1.20205754,4.86092821 L2.44952874,5.84253163 C1.95653299,6.79039974 1.65338508,7.84486203 1.57824185,8.95063007 L0,9.13898548 L0.351604756,12.0875441 L1.9300807,11.8989544 C1.9537239,11.9748588 1.97760118,12.050529 2.00358529,12.125262 C2.00943757,12.1414268 2.01528984,12.1575917 2.02114212,12.1737565 C2.02137621,12.1744593 2.0216103,12.1753964 2.02184439,12.1760992 C2.0740467,12.3225198 2.13046264,12.4665976 2.19062404,12.608567 C2.19226267,12.6125496 2.19390131,12.6165323 2.19553995,12.6202806 C2.25897862,12.7692782 2.32592866,12.9164016 2.39779462,13.0600109 C2.39802871,13.0604794 2.3982628,13.0607137 2.39849689,13.0611822 C2.53192879,13.3277848 2.6805766,13.5845479 2.84163124,13.83194 C2.84233352,13.8328771 2.8428017,13.8338142 2.84326988,13.8347513 C2.84935625,13.8441222 2.8559108,13.8532589 2.86223126,13.8623955 C2.86269944,13.8635669 2.8636358,13.8647382 2.86433808,13.8656753 C2.92356311,13.9554018 2.98372451,14.0444255 3.04622682,14.1313408 C3.046695,14.1322779 3.04739728,14.1329807 3.04786546,14.1336835 C3.05676092,14.1461 3.06635865,14.1582822 3.0754882,14.1706986 C3.0782973,14.1746813 3.08134048,14.1784296 3.08438366,14.1824123 C3.21734738,14.3644423 3.35686564,14.5410841 3.504343,14.7104634 C3.5045771,14.7109319 3.50481119,14.7111662 3.50504528,14.7114005 L3.50808846,14.7149146 L2.52654469,15.9624177 L4.86019836,17.7981801 L5.84150804,16.5506769 C5.84267849,16.5513797 5.84361486,16.5518483 5.84478531,16.5525511 C5.84548759,16.5530197 5.84642395,16.5532539 5.84712622,16.5537225 C5.93561264,16.59964 6.0255036,16.6427462 6.11562866,16.6853838 C6.12054457,16.6874923 6.12522639,16.6900693 6.12990821,16.6921778 C6.14559231,16.6996745 6.16104232,16.7076398 6.17672642,16.7149022 C6.1771946,16.7151365 6.17766279,16.7153708 6.17813097,16.7153708 C6.27340602,16.7594141 6.36985154,16.8006461 6.46699932,16.840941 C6.46957432,16.8418781 6.47214933,16.8430495 6.47472433,16.8442209 C6.48759933,16.8496091 6.50024025,16.855466 6.51311526,16.86062 L6.51569026,16.8615571 C6.61073123,16.9002121 6.70694265,16.9360558 6.80362225,16.9711968 C6.80994271,16.9735395 6.81602908,16.9758822 6.82234953,16.978225 C6.83194727,16.9815048 6.84177909,16.9854874 6.85137682,16.9887672 C6.85278137,16.9894701 6.85418592,16.9899386 6.85582455,16.9904071 C6.95461098,17.0253138 7.05456786,17.0576435 7.15522701,17.0888018 C7.16107928,17.0906759 7.16693156,17.0927844 7.17278384,17.0946586 C7.17840202,17.0962985 7.18402021,17.0981727 7.18987248,17.1000469 L7.19666112,17.101921 C7.24628842,17.1171488 7.29591573,17.1323765 7.34601121,17.1464329 C7.34671348,17.1466672 7.34741576,17.1469014 7.34835212,17.1471357 C7.3488203,17.14737 7.34928849,17.1476043 7.34999076,17.1476043 C7.36871804,17.1529925 7.38744533,17.1574437 7.40593852,17.1623634 C7.5058954,17.1895391 7.60608637,17.2160119 7.70744779,17.2394392 C7.70861825,17.2399078 7.7097887,17.240142 7.71072507,17.2403763 C7.71868416,17.2422505 7.72664326,17.2436561 7.73436826,17.245296 C7.73624099,17.2457646 7.73787963,17.2459989 7.73951827,17.2464674 C7.88699563,17.2797342 8.03587753,17.3083155 8.1856958,17.3333827 C8.19131399,17.3343197 8.19693218,17.3350226 8.20255036,17.3359597 C8.35377318,17.3610269 8.50616645,17.3816429 8.65996427,17.3978077 C8.66160291,17.398042 8.66347564,17.3982762 8.66534836,17.3985105 C8.69086429,17.4010875 8.7166143,17.4043673 8.74236432,17.4069443 C8.74376887,17.4069443 8.74517341,17.4071786 8.74657796,17.4071786 C8.8055689,17.4128012 8.86479394,17.4174866 8.92401897,17.4219378 C8.93268034,17.4226406 8.94134171,17.4233434 8.95000308,17.4240463 L9.13797819,19 L12.086355,18.6481221 L11.8983798,17.0719341 C11.9030617,17.0705285 11.9075094,17.06842 11.9121912,17.0670144 C12.1050822,17.0056349 12.2942278,16.9374615 12.4796279,16.8624941 C12.4878211,16.8592143 12.4955461,16.8559345 12.5037393,16.8524204 C12.888585,16.6954576 13.2568102,16.5096792 13.6067763,16.2978965 C13.6137991,16.2936796 13.6205877,16.2896969 13.6273763,16.28548 C13.8083287,16.1751375 13.9845993,16.0584696 14.1552516,15.9347735 C14.1566562,15.9340707 14.1578266,15.9331336 14.1592312,15.9321965 C14.1632107,15.9291509 14.1674244,15.9261054 14.171638,15.9230599 C14.1732767,15.9216542 14.1749153,15.9202486 14.1765539,15.9190772 C14.3612518,15.784136 14.5403314,15.6426352 14.7119202,15.4931691 C14.7126224,15.4927005 14.7133247,15.492232 14.7137929,15.4915292 L15.9614982,16.4728983 L17.7974743,14.1393061 L16.5500031,13.1579369 C16.5504713,13.1572341 16.5507054,13.156297 16.5511735,13.1555942" id="Fill-39" fill="#4B728D"></path>
            </g>
        </g>
    </g>
</svg>