<?xml version="1.0" encoding="UTF-8"?>
<svg width="270px" height="63px" viewBox="0 0 270 63" version="1.1" xmlns="http://www.w3.org/2000/svg" xmlns:xlink="http://www.w3.org/1999/xlink">
    <!-- Generator: Sketch 50 (54983) - http://www.bohemiancoding.com/sketch -->
    <title>logo-tutellus</title>
    <desc>Created with Sketch.</desc>
    <defs>
        <linearGradient x1="14.5803304%" y1="14.6706544%" x2="85.2063275%" y2="85.3423426%" id="linearGradient-1">
            <stop stop-color="#33596A" offset="0%"></stop>
            <stop stop-color="#15C1CE" offset="100%"></stop>
        </linearGradient>
        <linearGradient x1="1.07767077%" y1="83.3835795%" x2="91.0049278%" y2="24.251993%" id="linearGradient-2">
            <stop stop-color="#33596A" offset="0%"></stop>
            <stop stop-color="#15C1CE" offset="100%"></stop>
        </linearGradient>
        <linearGradient x1="86.5637183%" y1="86.9225754%" x2="12.7674184%" y2="30.441024%" id="linearGradient-3">
            <stop stop-color="#33596A" offset="0%"></stop>
            <stop stop-color="#15C1CE" offset="100%"></stop>
        </linearGradient>
        <linearGradient x1="8.02459862%" y1="12.9331336%" x2="82.2844488%" y2="101.860938%" id="linearGradient-4">
            <stop stop-color="#33596A" offset="0%"></stop>
            <stop stop-color="#15C1CE" offset="100%"></stop>
        </linearGradient>
    </defs>
    <g id="logo-tutellus" stroke="none" stroke-width="1" fill="none" fill-rule="evenodd">
        <g id="white-logo" transform="translate(3.000000, 0.000000)" fill-rule="nonzero">
            <path d="M39.9637097,1.88461538 C40.7374801,2.18625482 41.4875891,2.54624905 42.2076613,2.96153846 C41.4876834,2.54606735 40.7375606,2.18606647 39.9637097,1.88461538 C29.3824006,-1.35388866 17.8905775,1.34658093 9.82164499,8.96771509 C1.75271251,16.5888492 -1.66593028,27.9713654 0.85483871,38.8230769 C3.35877087,49.6642228 11.4076926,58.33759 21.9732032,61.5798305 C32.5387138,64.8220709 44.0179027,62.1412993 52.0917339,54.5461538 C50.1517663,56.1102054 47.8875371,57.2143868 45.4667339,57.7769231 L43.8639113,58.0461538 L45.4667339,57.7769231 C47.9069683,57.2237747 50.1905958,56.1190425 52.1451613,54.5461538 C60.2487635,46.9335827 63.6947019,35.5348934 61.1795475,24.6616493 C58.6643932,13.7884051 50.5721478,5.10068099 39.9637097,1.88461538 Z M0.694556452,37.5846154 C0.730174731,37.9794872 0.783602151,38.3923077 0.85483871,38.8230769 C0.747983871,38.3923077 0.694556452,37.9615385 0.694556452,37.5846154 Z M0.641129032,36.3461538 C0.645186233,33.9673559 1.15530898,31.6170893 2.13709677,29.4538462 C1.15530898,31.6170893 0.645186233,33.9673559 0.641129032,36.3461538 C0.641129032,36.4 0.641129032,36.5076923 0.641129032,36.5615385 C0.641129032,36.6153846 0.641129032,36.4 0.641129032,36.2923077 L0.641129032,36.3461538 Z M6.03729839,23.9615385 C4.57103303,25.3111979 3.35839911,26.9163939 2.45766129,28.7 C3.35839911,26.9163939 4.57103303,25.3111979 6.03729839,23.9615385 L7.26612903,22.9384615 L6.03729839,23.9615385 Z M7.90725806,22.4538462 C9.02213961,21.6991158 10.2242358,21.0843158 11.4868952,20.6230769 C10.2242358,21.0843158 9.02213961,21.6991158 7.90725806,22.4538462 Z M13.0362903,20.1384615 C14.3798905,19.7864749 15.7619632,19.6055782 17.1502016,19.6 C15.7619632,19.6055782 14.3798905,19.7864749 13.0362903,20.1384615 Z M24.5766129,21.3769231 L26.1260081,22.2384615 L42.4747984,31.7153846 L41.5665323,32.2 L25.2177419,41.7307692 C25.2177419,41.4076923 25.2177419,41.0846154 25.2177419,40.7076923 L25.2177419,21.7538462 L24.5766129,21.3769231 Z M19.4475806,19.7615385 L19.9284274,19.8692308 L19.4475806,19.7615385 Z M20.5695565,19.9769231 L21.1038306,20.0846154 L20.5695565,19.9769231 Z M21.6381048,20.2461538 L22.172379,20.4076923 L21.6381048,20.2461538 Z M22.6532258,20.5692308 L23.2409274,20.7846154 L22.6532258,20.5692308 Z M23.6149194,20.9461538 L24.202621,21.2153846 L23.6149194,20.9461538 Z M25.2177419,41.7846154 C25.2177419,41.9461538 25.2177419,42.1615385 25.2177419,42.3230769 C25.2177419,42.4846154 25.2177419,41.9461538 25.2177419,41.7846154 Z M27.4616935,49.8076923 C29.1205757,52.6812857 31.5955788,54.9881375 34.5675403,56.4307692 C31.5955788,54.9881375 29.1205757,52.6812857 27.4616935,49.8076923 Z M25.4314516,43.9384615 L25.5383065,44.4769231 L25.4314516,43.9384615 Z M25.6451613,45.0153846 L25.7520161,45.5538462 L25.6451613,45.0153846 Z M25.9122984,46.0923077 L26.0725806,46.5769231 L25.9122984,46.0923077 Z M26.2862903,47.2230769 L26.4465726,47.6538462 L26.2862903,47.2230769 Z M26.7671371,48.3538462 L26.9274194,48.7307692 L26.7671371,48.3538462 Z M42.4747984,31.6615385 L42.9022177,31.3923077 L42.4747984,31.6615385 Z M43.3830645,31.0692308 L43.8104839,30.7461538 L43.3830645,31.0692308 Z M45.0927419,29.6692308 L45.4667339,29.2923077 L45.0927419,29.6692308 Z M44.2379032,30.4230769 L44.6653226,30.1 L44.2379032,30.4230769 Z M45.8941532,28.9153846 L46.2147177,28.5384615 L45.8941532,28.9153846 Z M46.6421371,28.0538462 L46.9627016,27.6769231 L46.6421371,28.0538462 Z M47.390121,27.0846154 L47.6038306,26.7615385 L47.390121,27.0846154 Z" id="Shape" fill="url(#linearGradient-1)"></path>
            <path d="M39.9637097,1.88461538 C46.0223284,4.26729831 50.1366205,10.0030588 50.4820654,16.5483212 C50.8275102,23.0935836 47.3401679,29.2368553 41.5665323,32.2538462 L25.2177419,41.7307692 C25.3306892,48.0848947 29.0138983,53.823134 34.7181498,56.5318877 C40.4224013,59.2406415 47.1579588,58.4499175 52.0917339,54.4923077 C60.1684687,46.8846599 63.6030978,35.5113622 61.1011769,24.6587875 C58.5992559,13.8062129 50.541115,5.12411845 39.9637097,1.88461538 Z" id="Shape" fill="url(#linearGradient-2)"></path>
            <path d="M1.65458738e-15,31.7153846 C-0.00338944394,34.1077043 0.265505028,36.4925212 0.80141129,38.8230769 C-0.198367636,32.3419379 2.6606067,25.8713711 8.10901795,22.2841536 C13.5574292,18.6969361 20.5853615,18.6579935 26.0725806,22.1846154 L42.421371,31.6615385 C47.819068,28.3781001 50.898986,22.2908698 50.3660264,15.9595142 C49.8330667,9.62815855 45.7796707,4.15084408 39.9102823,1.83076923 C30.5289207,-1.0359585 20.3545766,0.748500241 12.4856313,6.64072624 C4.61668603,12.5329522 -0.0153915199,21.8354664 5.4508332e-15,31.7153846 Z" id="Shape" fill="url(#linearGradient-3)"></path>
            <path d="M50.0614919,55.8923077 C44.8240535,58.9477997 38.3500598,58.8811756 33.175621,55.7185345 C28.0011822,52.5558935 24.9501546,46.8007804 25.2177419,40.7076923 L25.2177419,21.7538462 C19.7013815,18.6685703 12.9249255,19.0097228 7.74110077,22.6336867 C2.55727606,26.2576506 -0.13354422,32.5349833 0.80141129,38.8230769 C3.30534345,49.6642228 11.3542652,58.33759 21.9197758,61.5798305 C32.4852864,64.8220709 43.9644753,62.1412993 52.0383065,54.5461538 C51.4125536,55.0424854 50.7518796,55.4923854 50.0614919,55.8923077 Z" id="Shape" fill="url(#linearGradient-4)"></path>
            <polygon id="Shape" fill="#FFFFFF" points="103.488911 12.0615385 103.488911 18.1461538 91.5745968 18.1461538 91.5745968 52.0153846 84.2016129 52.0153846 84.2016129 18.2 72.1804435 18.2 72.1804435 12.0615385"></polygon>
            <path d="M109.633065,23.6923077 L109.633065,41.7307692 C109.633065,43.4538462 110.024866,44.8 110.808468,45.7692308 C111.59207,46.7384615 112.785282,47.2051282 114.388105,47.1692308 C115.540684,47.1726576 116.677046,46.8955765 117.700605,46.3615385 C118.768371,45.8004374 119.741955,45.0736124 120.585685,44.2076923 L120.585685,23.6923077 L127.370968,23.6923077 L127.370968,52.0692308 L123.203629,52.0692308 C122.413209,52.1215681 121.696667,51.6025172 121.493952,50.8307692 L121.013105,48.5692308 C120.441116,49.1448125 119.834454,49.6842979 119.196573,50.1846154 C118.583387,50.6673683 117.920671,51.0825557 117.219758,51.4230769 C116.485606,51.7762423 115.715196,52.0470961 114.922379,52.2307692 C114.062921,52.4217628 113.184456,52.5121047 112.304435,52.5 C110.90984,52.5193625 109.526671,52.2442292 108.243952,51.6923077 C107.092008,51.1971117 106.068361,50.4417824 105.252016,49.4846154 C104.42845,48.4870115 103.810861,47.3336874 103.435484,46.0923077 C103.00136,44.6801429 102.785127,43.2091307 102.794355,41.7307692 L102.794355,23.6923077 L109.579637,23.6923077 L109.633065,23.6923077 Z" id="Shape" fill="#FFFFFF"></path>
            <path d="M143.826613,52.5 C141.40457,52.5 139.53461,51.8 138.216734,50.4 C136.898858,49 136.239919,47.0794872 136.239919,44.6384615 L136.239919,28.8076923 L133.408266,28.8076923 C133.029321,28.826684 132.661487,28.6755642 132.403711,28.3949837 C132.145934,28.1144032 132.024686,27.7331741 132.072581,27.3538462 L132.072581,24.6615385 L136.613911,23.9076923 L138.056452,16.1538462 C138.116052,15.8073592 138.307816,15.4981326 138.590726,15.2923077 C138.882697,15.071205 139.240834,14.9572228 139.605847,14.9692308 L143.132056,14.9692308 L143.132056,23.9615385 L150.558468,23.9615385 L150.558468,28.8076923 L143.025202,28.8076923 L143.025202,44.1538462 C142.969257,44.9101978 143.198177,45.6600196 143.666331,46.2538462 C144.112777,46.7579693 144.759502,47.0344881 145.429435,47.0076923 C145.792122,47.0151682 146.153436,46.9605463 146.497984,46.8461538 L147.245968,46.5230769 L147.833669,46.2 L148.314516,46.0384615 C148.487918,46.0384615 148.656642,46.0951437 148.795363,46.2 L149.222782,46.6307692 L151.253024,49.9692308 C150.243206,50.811881 149.082477,51.4516299 147.833669,51.8538462 C146.541137,52.2849411 145.18808,52.503127 143.826613,52.5 Z" id="Shape" fill="#FFFFFF"></path>
            <path d="M167.441532,23.2615385 C169.118526,23.2425736 170.78468,23.5346106 172.356855,24.1230769 C173.800423,24.6613396 175.112315,25.5060621 176.203629,26.6 C177.312001,27.7540979 178.167498,29.1299519 178.714718,30.6384615 C179.343151,32.3805198 179.650946,34.2235166 179.622984,36.0769231 C179.633123,36.5084053 179.615276,36.9400942 179.569556,37.3692308 C179.537687,37.6543607 179.446671,37.9295476 179.302419,38.1769231 C179.192718,38.3692578 179.023957,38.5204433 178.821573,38.6076923 L178.073589,38.7153846 L160.65625,38.7153846 C160.86996,41.6230769 161.653562,43.7589744 163.007056,45.1230769 C164.448836,46.5259281 166.401491,47.2663483 168.403226,47.1692308 C169.36074,47.1913497 170.315896,47.0642084 171.234879,46.7923077 C171.95235,46.5650043 172.649404,46.2767922 173.318548,45.9307692 L174.867944,45.0692308 C175.255836,44.8339646 175.697635,44.7040967 176.150202,44.6923077 C176.391483,44.6867492 176.630293,44.742291 176.844758,44.8538462 C177.05808,44.9709419 177.241096,45.1369472 177.379032,45.3384615 L179.355847,47.8153846 C178.631951,48.6725864 177.785679,49.4166101 176.844758,50.0230769 C175.924325,50.6205676 174.938233,51.1084431 173.90625,51.4769231 C172.900843,51.8317052 171.862745,52.0842443 170.80746,52.2307692 C169.798437,52.3728253 168.780916,52.4447899 167.762097,52.4461538 C165.901769,52.4649439 164.054077,52.1363252 162.3125,51.4769231 C160.659956,50.8398536 159.164947,49.8476195 157.931452,48.5692308 C156.637606,47.2113429 155.637059,45.5979212 154.992944,43.8307692 C154.243754,41.7246286 153.881656,39.4985211 153.924395,37.2615385 C153.90574,35.408856 154.213257,33.5675215 154.832661,31.8230769 C155.417711,30.1683277 156.326076,28.6486235 157.504032,27.3538462 C158.704591,26.0593875 160.160485,25.0322746 161.778226,24.3384615 C163.571442,23.5874728 165.500081,23.2207265 167.441532,23.2615385 Z M167.601815,28.1615385 C165.642809,28.1615385 164.093414,28.7179487 162.953629,29.8307692 C161.744682,31.1525148 160.994654,32.8344081 160.816532,34.6230769 L173.532258,34.6230769 C173.529565,33.7833589 173.403534,32.948669 173.158266,32.1461538 C172.926946,31.3939951 172.545095,30.6976104 172.03629,30.1 C171.52646,29.4963648 170.886988,29.0176051 170.166331,28.7 C169.357846,28.3430482 168.484472,28.1596692 167.601815,28.1615385 Z" id="Shape" fill="#FFFFFF"></path>
            <polygon id="Shape" fill="#FFFFFF" points="192.33871 10.9846154 192.33871 52.0692308 185.606855 52.0692308 185.606855 10.9846154"></polygon>
            <polygon id="Shape" fill="#FFFFFF" points="207.24496 10.9846154 207.24496 52.0692308 200.459677 52.0692308 200.459677 10.9846154"></polygon>
            <path d="M221.082661,23.6923077 L221.082661,41.7307692 C221.082661,43.4538462 221.474462,44.8 222.258065,45.7692308 C223.041667,46.7384615 224.234879,47.2051282 225.837702,47.1692308 C226.990281,47.1726576 228.126643,46.8955765 229.150202,46.3615385 C230.217499,45.7996816 231.190971,45.0729396 232.035282,44.2076923 L232.035282,23.6923077 L238.820565,23.6923077 L238.820565,52.0692308 L234.653226,52.0692308 C233.862805,52.1215681 233.146264,51.6025172 232.943548,50.8307692 L232.462702,48.5692308 C231.890806,49.1449125 231.284138,49.6844034 230.646169,50.1846154 C230.032984,50.6673683 229.370267,51.0825557 228.669355,51.4230769 C227.935039,51.7758422 227.164674,52.0466804 226.371976,52.2307692 C225.512594,52.42224 224.634074,52.5125875 223.754032,52.5 C222.359436,52.5193625 220.976268,52.2442292 219.693548,51.6923077 C218.541605,51.1971117 217.517958,50.4417824 216.701613,49.4846154 C215.878046,48.4870115 215.260458,47.3336874 214.885081,46.0923077 C214.450956,44.6801429 214.234723,43.2091307 214.243952,41.7307692 L214.243952,23.6923077 L221.029234,23.6923077 L221.082661,23.6923077 Z" id="Shape" fill="#FFFFFF"></path>
            <path d="M262.756048,29.2384615 C262.614954,29.4986309 262.413273,29.7203708 262.168347,29.8846154 C261.937123,30.0028839 261.679368,30.05855 261.420363,30.0461538 C261.048307,30.0409544 260.682527,29.9487926 260.351815,29.7769231 L259.069556,29.1307692 L257.359879,28.4846154 C256.628,28.2899126 255.872706,28.1992918 255.115927,28.2153846 C254.000517,28.1526442 252.894849,28.4548363 251.96371,29.0769231 C251.212021,29.5768289 250.768057,30.431038 250.788306,31.3384615 C250.782086,31.898952 250.992912,32.4398079 251.376008,32.8461538 C251.824439,33.295595 252.34921,33.6603428 252.925403,33.9230769 C253.632537,34.2665363 254.364879,34.5545684 255.115927,34.7846154 L257.627016,35.5923077 L260.138105,36.6153846 C260.936127,36.987202 261.674472,37.47724 262.328629,38.0692308 C262.977482,38.6593746 263.50406,39.3730805 263.878024,40.1692308 C264.289615,41.0811873 264.490559,42.0753687 264.465726,43.0769231 C264.476013,44.3717837 264.221388,45.6548854 263.717742,46.8461538 C263.217792,47.9867669 262.469043,48.9990591 261.527218,49.8076923 C260.491655,50.684102 259.292787,51.3431552 258.001008,51.7461538 C255.523618,52.4948178 252.905674,52.6424241 250.360887,52.1769231 C249.451251,52.0006402 248.55772,51.7484908 247.689516,51.4230769 C246.874242,51.1170417 246.087549,50.7386319 245.33871,50.2923077 C244.651143,49.894127 244.006544,49.4249348 243.415323,48.8923077 L244.964718,46.3076923 C245.140675,46.0243785 245.378164,45.7850284 245.659274,45.6076923 C245.982956,45.4177354 246.353525,45.3243672 246.727823,45.3384615 C247.147359,45.3480391 247.555336,45.4788676 247.903226,45.7153846 L249.185484,46.4692308 C249.751655,46.7688675 250.34135,47.0210017 250.948589,47.2230769 C251.758903,47.4889806 252.607648,47.6163801 253.459677,47.6 C254.164065,47.6234448 254.867608,47.53254 255.543347,47.3307692 C256.066629,47.1723439 256.55589,46.9166649 256.985887,46.5769231 C257.33441,46.2874908 257.60919,45.9182448 257.787298,45.5 C257.962199,45.0918887 258.05308,44.6522423 258.054435,44.2076923 C258.071684,43.6131394 257.861239,43.0347006 257.466734,42.5923077 C257.024366,42.1217511 256.498952,41.7382967 255.917339,41.4615385 C255.1932,41.1148577 254.442851,40.82677 253.673387,40.6 L251.108871,39.7923077 C250.234985,39.5019282 249.378686,39.1603201 248.544355,38.7692308 C247.723229,38.387149 246.966169,37.878487 246.300403,37.2615385 C245.63741,36.62113 245.110302,35.8517493 244.751008,35 C244.330017,33.9772595 244.129684,32.8759701 244.163306,31.7692308 C244.159613,30.6195983 244.396271,29.4820774 244.857863,28.4307692 C245.324623,27.3752396 246.018049,26.4372953 246.888105,25.6846154 C247.862329,24.8484091 248.986873,24.2086101 250.200605,23.8 C251.682089,23.3072988 253.235575,23.070629 254.795363,23.1 C256.60393,23.0769748 258.3999,23.406074 260.084677,24.0692308 C261.555078,24.6421484 262.898681,25.5022056 264.038306,26.6 L262.756048,29.2384615 Z" id="Shape" fill="#FFFFFF"></path>
        </g>
    </g>
</svg>