<svg xmlns="http://www.w3.org/2000/svg" viewBox="0 0 512 512" enable-background="new 0 0 512 512"><path d="m288.8 476.59l216.37-319.19c10.202-15.05 8.855-35.11-3.27-48.662l-69.36-77.52c-7.518-8.403-18.26-13.206-29.534-13.206h-294.01c-11.276 0-22.02 4.802-29.534 13.206l-69.36 77.53c-12.12 13.55-13.471 33.613-3.27 48.662l216.37 319.19c15.722 23.19 49.888 23.19 65.61 0" fill="#215e87"/><g fill="#3570a0"><path d="m511.85 131.79c.762 8.812-1.436 17.874-6.68 25.609l-216.37 319.19c-6.462 9.53-16.05 15.14-26.19 16.841l75.75-361.64c0 0 173.48 0 173.48 0"/><path d="m418.46 21.14l-80.1 110.65-82.36-113.78h147.01c5.363 0 10.617 1.098 15.458 3.132"/></g><path d="m338.36 131.79l-75.75 361.64c-4.373.729-8.856.729-13.229 0l-75.75-361.64h164.73" fill="#4787b2"/><path d="m256 18.01l-82.36 113.78-80.1-110.65c4.841-2.034 10.1-3.133 15.458-3.133h147.01" fill="#3570a0"/><path d="m93.54 21.14l80.1 110.65h-173.48c.707-8.344 4.057-16.471 9.943-23.05l69.36-77.52c3.939-4.393 8.759-7.808 14.08-10.07" fill="#4787b2"/></svg>