<svg xmlns="http://www.w3.org/2000/svg" viewBox="0 0 512 512" enable-background="new 0 0 512 512"><circle cx="256" cy="256" r="256" fill="#ffe17d"/><path d="m293.16 474.84c-141.38 0-256-114.62-256-256 0-61.23 21.521-117.41 57.38-161.46-57.674 46.94-94.54 118.47-94.54 198.62 0 141.38 114.61 256 256 256 80.16 0 151.69-36.864 198.63-94.54-44.05 35.855-100.24 57.38-161.46 57.38" fill="#ffd164"/><path d="m256 305.31c-49.32 0-96.41-5.727-139.6-16.08-5.595-1.341-10.417 4.504-8.691 10.596 19.92 70.32 78.72 121.34 148.29 121.34s128.37-51.02 148.29-121.34c1.726-6.092-3.096-11.937-8.691-10.596-43.19 10.352-90.28 16.08-139.6 16.08" fill="#9c6846"/><g fill="#7d5046"><path d="m395.6 289.23c-43.19 10.352-90.28 16.08-139.6 16.08s-96.41-5.726-139.6-16.08c-5.595-1.341-10.417 4.504-8.691 10.596 5.214 18.408 13.148 35.443 23.19 50.637 41.04 7.796 82.79 12.08 125.12 12.08 42.31 0 84.05-4.286 125.08-12.08 10.04-15.196 17.978-32.23 23.19-50.645 1.725-6.094-3.096-11.938-8.691-10.597"/><path d="m169.29 231.64c-11.402 0-20.645-9.243-20.645-20.645v-33.449c0-11.402 9.243-20.645 20.645-20.645 11.402 0 20.645 9.243 20.645 20.645v33.449c0 11.402-9.243 20.645-20.645 20.645"/></g><path d="m169.29 156.9c-1.414 0-2.794.145-4.129.416v45.42c0 6.841 5.546 12.387 12.387 12.387s12.387-5.546 12.387-12.387v-25.19c0-11.401-9.242-20.644-20.645-20.644" fill="#9c6846"/><path d="m342.71 231.64c-11.402 0-20.645-9.243-20.645-20.645v-33.449c0-11.402 9.243-20.645 20.645-20.645 11.402 0 20.645 9.243 20.645 20.645v33.449c0 11.402-9.243 20.645-20.645 20.645" fill="#7d5046"/><path d="m342.71 156.9c-1.414 0-2.794.145-4.129.416v45.42c0 6.841 5.546 12.387 12.387 12.387s12.387-5.546 12.387-12.387v-25.19c0-11.401-9.243-20.644-20.645-20.644" fill="#9c6846"/><path d="m367.05 317.43c4.464-7.649 8.199-15.845 11.331-24.377-38.38 7.921-79.53 12.253-122.38 12.253-42.873 0-84.04-4.336-122.45-12.267 3.148 8.573 6.944 16.784 11.438 24.465 5.195 8.88 13.99 14.56 23.558 15.724 28.649 3.485 57.847 5.354 87.45 5.354 29.599 0 58.79-1.868 87.43-5.352 9.6-1.167 18.412-6.884 23.615-15.8" fill="#fff"/></svg>