<svg xmlns="http://www.w3.org/2000/svg" viewBox="0 0 512 512" enable-background="new 0 0 512 512">
    <path d="m216.47 486.84c6.953 14.861 22.03 25.16 39.528 25.16 17.496 0 32.575-10.3 39.528-25.16" fill="#415e72" />
    <path d="m327.2 433.21c14.655 0 26.537 11.881 26.537 26.537v1.785c0 14.655-11.881 26.537-26.537 26.537h-142.39c-14.655 0-26.537-11.881-26.537-26.537v-1.785c0-14.655 11.881-26.537 26.537-26.537h142.39"
        fill="#cfdce5" />
    <path d="m196.18 461.54v-1.785c0-14.655 11.881-26.537 26.537-26.537h-37.909c-14.655 0-26.537 11.881-26.537 26.537v1.785c0 14.655 11.881 26.537 26.537 26.537h37.909c-14.656-.001-26.537-11.881-26.537-26.537"
        fill="#bac6cc" />
    <path d="m341.14 379.59c14.655 0 26.537 11.881 26.537 26.537v1.785c0 14.655-11.881 26.537-26.537 26.537h-100.62-31.592-38.07c-14.655 0-26.537-11.881-26.537-26.537v-1.785c0-14.655 11.881-26.537 26.537-26.537"
        fill="#cfdce5" />
    <path d="m182.23 407.91v-1.785c0-14.655 11.881-26.537 26.537-26.537h-37.909c-14.655 0-26.537 11.881-26.537 26.537v1.785c0 14.655 11.881 26.537 26.537 26.537h37.909c-14.656-.001-26.537-11.882-26.537-26.537"
        fill="#bac6cc" />
    <path d="m356.53 332.14c6.978-33.393 19.428-65.58 36.593-95.44 13.315-23.16 20.929-50.01 20.929-78.64 0-89.33-74.12-161.36-164.21-157.93-83.16 3.162-150.11 71.34-151.85 154.54-.631 30.11 7.163 58.35 21.19 82.54 17.18 29.639 29.497 61.692 36.38 94.94h200.98"
        fill="#fcd577" />
    <path d="m164.66 237.2c-14.02-24.18-21.815-52.43-21.19-82.54 1.625-77.61 59.984-142.14 135.31-153.03-9.407-1.359-19.08-1.889-28.95-1.514-83.16 3.16-150.11 71.34-151.85 154.54-.631 30.11 7.163 58.35 21.19 82.54 17.18 29.639 29.497 61.692 36.38 94.94h45.49c-6.884-33.25-19.2-65.3-36.38-94.94"
        fill="#eac36e" />
    <path d="m288.28 258.7h-64.57c-10.518 0-19.05 8.527-19.05 19.05v54.4h102.66v-54.4c0-10.518-8.527-19.05-19.05-19.05"
        fill="#415e72" />
    <g fill="#ff6f52">
        <path d="m246.3 209.76v96.05c0 5.111-4.136 9.259-9.259 9.259-5.111 0-9.259-4.148-9.259-9.259v-93.5l-35.36-59.74c-2.593-4.407-1.148-10.09 3.259-12.691 4.395-2.605 10.07-1.148 12.679 3.259l36.654 61.913c.839 1.432 1.284 3.062 1.284 4.716" />
        <path d="m319.57 152.57l-35.36 59.74v93.5c0 5.111-4.148 9.259-9.259 9.259-5.111 0-9.259-4.148-9.259-9.259v-96.05c0-1.654.444-3.284 1.296-4.716l36.642-61.913c2.605-4.407 8.284-5.864 12.679-3.259 4.408 2.605 5.864 8.284 3.259 12.691" />
    </g>
    <g fill="#fc8c7a">
        <path d="m227.78 258.69h18.518v47.12c0 5.111-4.136 9.259-9.259 9.259-5.111 0-9.259-4.148-9.259-9.259v-47.12" />
        <path d="m284.21 258.69v47.12c0 5.111-4.148 9.259-9.259 9.259s-9.259-4.148-9.259-9.259v-47.12h18.518" />
    </g>
    <path d="m274.64 380.82h-103.78c-14.655 0-26.537-11.881-26.537-26.537v-1.785c0-14.655 11.881-26.537 26.537-26.537h170.28c14.655 0 26.537 11.881 26.537 26.537v1.785c0 14.655-11.881 26.537-26.537 26.537h-36.17"
        fill="#cfdce5" />
    <path d="m182.23 354.29v-1.785c0-14.655 11.881-26.537 26.537-26.537h-37.909c-14.655 0-26.537 11.881-26.537 26.537v1.785c0 14.655 11.881 26.537 26.537 26.537h37.909c-14.656 0-26.537-11.881-26.537-26.537"
        fill="#bac6cc" />
</svg>