<svg xmlns="http://www.w3.org/2000/svg" viewBox="0 0 512 512" enable-background="new 0 0 512 512"><path d="m448 112h-16c-30.875 0-56-25.12-56-56 0-22.05-17.945-40-40-40h-56c-39.703 0-72 32.3-72 72 0 4.418-3.578 8-8 8s-8-3.582-8-8c0-48.52 39.477-88 88-88h56c30.875 0 56 25.12 56 56 0 22.06 17.945 40 40 40h16c4.422 0 8 3.582 8 8s-3.578 8-8 8" fill="#5c546a"/><path d="m256 80h-112c-48.52 0-88 39.477-88 88v200c0 79.4 64.6 144 144 144s144-64.6 144-144v-200c0-48.52-39.477-88-88-88" fill="#868491"/><path d="m256 80h-56.22v431.99c.074 0 .145.011.219.011 79.4 0 144-64.6 144-144v-200c0-48.52-39.477-88-88-88" fill="#b4b6bc"/><path d="m304 94.34c-13.819-9.04-30.29-14.339-48-14.339h-112c-17.708 0-34.18 5.303-48 14.339v137.66c0 30.879 25.13 56 56 56h96c30.875 0 56-25.12 56-56v-137.66" fill="#5c546a"/><path d="M199.781,80v208H248c30.875,0,56-25.121,56-56V94.339C290.181,85.303,273.708,80,256,80H199.781z" fill="#868491"/><path d="m200 224c-8.837 0-16-7.163-16-16v-48c0-8.837 7.163-16 16-16 8.837 0 16 7.163 16 16v48c0 8.836-7.163 16-16 16" fill="#b4b6bc"/><path d="m200 144c-.075 0-.145.021-.219.022v79.956c.075.001.144.022.219.022 8.836 0 16-7.164 16-16v-48c0-8.837-7.163-16-16-16" fill="#fff"/></svg>