<svg xmlns="http://www.w3.org/2000/svg" viewBox="0 0 512 512" enable-background="new 0 0 512 512"><g fill="#ff6464"><path d="m242.74.485c-92.81 6.776-165.12 87.38-163.25 180.42 2.827 140.06 140.89 265.47 170.82 291.04 3.304 2.822 8.105 2.788 11.407-.034 30.32-25.909 170.83-153.61 170.83-295.36 0-101.89-86.31-183.62-189.81-176.07m13.261 299.65c-68.25 0-123.59-55.33-123.59-123.59s55.33-123.59 123.59-123.59 123.59 55.33 123.59 123.59-55.33 123.59-123.59 123.59"/><path d="m256 256c-4.879 0-8.871-3.996-8.871-8.871s3.991-8.871 8.871-8.871c4.879 0 8.871 3.996 8.871 8.871s-3.992 8.871-8.871 8.871m8.784-8.871h.086-.086m-8.784 0h.086-.086"/><path d="m256 220.69c-4.879 0-8.828-3.953-8.828-8.828v-2.638c0-11.742 7.629-21.918 18.991-25.327 14.802-4.436 25.15-18.345 25.15-33.823 0-19.14-16.17-35.31-35.31-35.31-19.474 0-35.31 15.84-35.31 35.31 0 4.875-3.948 8.828-8.828 8.828-4.879 0-8.828-3.953-8.828-8.828 0-29.21 23.758-52.966 52.966-52.966 28.707 0 52.965 24.26 52.965 52.97 0 23.21-15.518 44.08-37.732 50.737-3.828 1.146-6.405 4.53-6.405 8.414v2.638c0 4.876-3.948 8.828-8.827 8.828"/></g><path d="m317.79 512h-123.59c-4.879 0-8.828-3.953-8.828-8.828s3.948-8.828 8.828-8.828h123.59c4.879 0 8.828 3.953 8.828 8.828s-3.949 8.828-8.828 8.828" fill="#d7deed"/><path d="m252.59 471.94c-14.898-21.21-74.42-111.17-95.24-221.18-15.585-20.682-24.935-46.33-24.935-74.22 0-30.606 11.187-58.56 29.614-80.14 16.463-53.02 48.4-91.34 86.02-95.92 1.375-.168 2.987-.313 4.738-.446-3.329.06-6.676.201-10.04.446-92.81 6.776-165.12 87.38-163.25 180.42 2.827 140.06 140.89 265.47 170.82 291.04 1.647 1.407 3.668 2.101 5.688 2.097-1.213.003-2.424-.691-3.413-2.098" fill="#d2555a"/></svg>